<?xml version="1.0" encoding="UTF-8"?>
<!DOCTYPE svg PUBLIC "-//W3C//DTD SVG 1.1//EN" "http://www.w3.org/Graphics/SVG/1.1/DTD/svg11.dtd">
<svg xmlns="http://www.w3.org/2000/svg" version="1.1" width="3840px" height="2160px" style="shape-rendering:geometricPrecision; text-rendering:geometricPrecision; image-rendering:optimizeQuality; fill-rule:evenodd; clip-rule:evenodd" xmlns:xlink="http://www.w3.org/1999/xlink">
<g><path style="opacity:0.988" fill="#2ae880" d="M 618.5,934.5 C 616.938,934.733 615.605,935.4 614.5,936.5C 444.74,840.029 274.074,743.529 102.5,647C 87.797,641.297 73.1303,640.631 58.5,645C 53.7636,646.92 49.7636,649.753 46.5,653.5C 44.7376,652.738 43.7376,651.404 43.5,649.5C 55.3075,638.541 69.3075,634.375 85.5,637C 92.412,638.193 99.0787,640.193 105.5,643C 276.888,739.688 447.888,836.854 618.5,934.5 Z"/></g>
<g><path style="opacity:1" fill="#00ef4d" d="M 614.5,936.5 C 613.167,938.167 611.833,939.833 610.5,941.5C 605.5,945.833 600.833,950.5 596.5,955.5C 555.167,996.5 513.833,1037.5 472.5,1078.5C 334.409,941.077 196.076,803.411 57.5,665.5C 54.5,661.833 51.1667,658.5 47.5,655.5C 47.1667,654.833 46.8333,654.167 46.5,653.5C 49.7636,649.753 53.7636,646.92 58.5,645C 73.1303,640.631 87.797,641.297 102.5,647C 274.074,743.529 444.74,840.029 614.5,936.5 Z"/></g>
<g><path style="opacity:1" fill="#03d5fe" d="M 43.5,649.5 C 43.7376,651.404 44.7376,652.738 46.5,653.5C 46.8333,654.167 47.1667,654.833 47.5,655.5C 48.597,657.774 49.9304,659.941 51.5,662C 51.3699,663.059 50.8699,663.892 50,664.5C 49.6667,663.167 49.3333,661.833 49,660.5C 47.3335,659.66 47.1669,660.16 48.5,662C 47.4216,662.674 46.7549,663.674 46.5,665C 47.2372,671.965 48.4039,672.132 50,665.5C 50.2735,667.329 51.1068,668.829 52.5,670C 51.3281,671.868 51.4947,673.702 53,675.5C 53.6667,674.167 54.3333,672.833 55,671.5C 55.1667,672 55.3333,672.5 55.5,673C 55.9561,676.304 55.4561,679.47 54,682.5C 54.6667,683.833 55.3333,683.833 56,682.5C 56.6667,686.5 57.3333,686.5 58,682.5C 58.6543,681.304 59.1543,681.304 59.5,682.5C 59.6524,684.9 59.1524,687.234 58,689.5C 57.5073,686.015 56.0073,685.515 53.5,688C 55.4875,689.319 56.6541,691.152 57,693.5C 57.3333,692.5 57.6667,691.5 58,690.5C 58.1667,691.167 58.3333,691.833 58.5,692.5C 57.3099,694.359 57.3099,696.192 58.5,698C 58.0556,699.762 57.5556,699.595 57,697.5C 55.1728,699.586 55.1728,701.586 57,703.5C 57.6667,702.833 58.3333,702.167 59,701.5C 59.6514,703.235 59.4847,704.902 58.5,706.5C 61.2433,709.654 63.7433,712.988 66,716.5C 66.6667,713.833 67.3333,713.833 68,716.5C 69.5053,714.702 69.6719,712.868 68.5,711C 72.3832,708.755 73.0499,709.255 70.5,712.5C 71.1895,715.683 72.8562,718.183 75.5,720C 73.9007,721.786 73.0674,723.953 73,726.5C 71.9806,724.731 71.814,723.064 72.5,721.5C 70.6661,717.187 68.6661,716.854 66.5,720.5C 67.3128,721.814 68.3128,722.981 69.5,724C 68.2845,726.096 67.4512,725.929 67,723.5C 66.5,724.5 66,725.5 65.5,726.5C 66.5315,729.212 67.6982,732.212 69,735.5C 69.6667,730.167 70.3333,730.167 71,735.5C 71.3333,734.167 71.6667,732.833 72,731.5C 72.1067,734.131 72.2734,736.631 72.5,739C 71.8095,740.067 71.3095,741.234 71,742.5C 70.6667,740.833 70.3333,739.167 70,737.5C 69.8528,740.11 69.0194,742.444 67.5,744.5C 69.1801,745.769 70.3468,747.436 71,749.5C 71.3333,748.833 71.6667,748.167 72,747.5C 72.972,749.305 74.1387,750.972 75.5,752.5C 74.6446,753.293 73.8113,752.96 73,751.5C 72.5,752 72,752.5 71.5,753C 74.3545,755.078 74.6878,757.245 72.5,759.5C 74.8635,762.699 77.0302,766.032 79,769.5C 79.6355,768.034 80.4688,766.7 81.5,765.5C 79.4453,763.445 77.7787,761.112 76.5,758.5C 76.6667,758.167 76.8333,757.833 77,757.5C 78.1011,759.394 79.4345,760.061 81,759.5C 81.3333,760.5 81.6667,761.5 82,762.5C 81.1634,759.227 80.4967,755.894 80,752.5C 80.8372,754.844 82.1706,756.844 84,758.5C 84.805,756.099 85.6383,756.266 86.5,759C 85.6383,761.734 84.805,761.901 84,759.5C 83.342,761.108 83.842,762.275 85.5,763C 84.4629,765.812 85.1296,768.312 87.5,770.5C 86.9747,771.192 86.3081,771.692 85.5,772C 87.689,772.677 88.0224,773.844 86.5,775.5C 89.0212,777.26 89.8545,779.593 89,782.5C 87.4419,781.655 86.4419,782.321 86,784.5C 84.3117,783.675 84.1451,782.675 85.5,781.5C 84.9017,780.205 84.4017,778.872 84,777.5C 83.6667,778.5 83.3333,779.5 83,780.5C 82.3333,777.833 81.6667,775.167 81,772.5C 80.6905,773.766 80.1905,774.933 79.5,776C 80.4581,777.147 80.1247,778.147 78.5,779C 79.6872,780.019 80.6872,781.186 81.5,782.5C 78.4188,782.726 77.9188,784.392 80,787.5C 80.6914,785.109 81.6914,785.109 83,787.5C 83.0929,790.007 83.9262,792.174 85.5,794C 84.4464,795.388 84.2797,796.888 85,798.5C 86.7174,800.873 88.2174,803.373 89.5,806C 89,806.5 88.5,807 88,807.5C 86.8173,806.269 85.6507,806.269 84.5,807.5C 87.1884,810.354 89.6884,813.354 92,816.5C 95.123,814.411 95.2896,815.078 92.5,818.5C 93.1831,821.461 94.0164,821.795 95,819.5C 95.6924,820.025 96.1924,820.692 96.5,821.5C 92.0373,823.722 90.8707,827.056 93,831.5C 93.2896,829.956 93.9563,828.623 95,827.5C 95.4922,828.549 95.3256,829.549 94.5,830.5C 99.8488,832.712 101.015,836.046 98,840.5C 96.3117,839.675 96.1451,838.675 97.5,837.5C 96.6667,835.833 95.8333,834.167 95,832.5C 91.8084,836.038 92.3084,839.204 96.5,842C 96.0426,842.414 95.7093,842.914 95.5,843.5C 96.154,845.115 96.654,846.782 97,848.5C 96.9646,844.755 97.9646,844.088 100,846.5C 100.492,847.549 100.326,848.549 99.5,849.5C 100.796,851.336 101.63,853.336 102,855.5C 102.667,852.833 103.333,852.833 104,855.5C 104.667,852.833 105.333,852.833 106,855.5C 106.84,852.536 107.84,852.203 109,854.5C 109.805,852.099 110.638,852.266 111.5,855C 110.185,856.395 110.519,857.395 112.5,858C 111.022,859.193 109.688,859.693 108.5,859.5C 110.43,861.14 111.263,863.14 111,865.5C 108.787,865.056 107.12,863.389 106,860.5C 105.667,861.167 105.333,861.833 105,862.5C 103.414,861.624 101.914,860.624 100.5,859.5C 99.432,861.187 99.5986,862.854 101,864.5C 101.451,862.071 102.285,861.904 103.5,864C 103.043,864.414 102.709,864.914 102.5,865.5C 103.154,867.115 103.654,868.782 104,870.5C 104.333,869.167 104.667,867.833 105,866.5C 105.022,868.921 106.022,871.254 108,873.5C 108.669,870.972 109.502,870.972 110.5,873.5C 109.372,874.262 108.205,874.929 107,875.5C 106.151,873.494 104.985,872.828 103.5,873.5C 104.236,875.541 105.069,877.541 106,879.5C 106.333,878.833 106.667,878.167 107,877.5C 109.303,879.528 110.137,881.861 109.5,884.5C 109.977,885.478 110.643,886.311 111.5,887C 110.742,890.826 109.742,894.659 108.5,898.5C 110.181,901.055 112.014,902.721 114,903.5C 115.615,901.989 115.615,900.656 114,899.5C 113.667,899.833 113.333,900.167 113,900.5C 111.59,893.461 112.923,892.794 117,898.5C 119.071,895.584 120.405,895.918 121,899.5C 121.333,898.5 121.667,897.5 122,896.5C 122.309,897.766 122.809,898.933 123.5,900C 122.299,900.903 121.465,902.069 121,903.5C 120.221,902.272 119.221,901.272 118,900.5C 116.274,901.648 116.441,902.815 118.5,904C 118,904.5 117.5,905 117,905.5C 112.651,904.187 111.651,905.52 114,909.5C 115.016,908.366 115.683,908.699 116,910.5C 116.451,908.071 117.285,907.904 118.5,910C 117.833,910.667 117.167,911.333 116.5,912C 117.893,913.171 118.727,914.671 119,916.5C 119.333,915.5 119.667,914.5 120,913.5C 120.402,914.872 120.902,916.205 121.5,917.5C 120.38,922.734 119.547,922.734 119,917.5C 118.654,919.218 118.154,920.885 117.5,922.5C 118.711,923.874 119.711,925.374 120.5,927C 120.607,929.44 120.607,931.94 120.5,934.5C 122.831,936.617 123.997,939.284 124,942.5C 124.853,944.125 125.853,944.458 127,943.5C 128.301,945.365 128.635,947.365 128,949.5C 127.667,948.833 127.333,948.167 127,947.5C 125.261,949.71 124.094,952.21 123.5,955C 123.63,956.059 124.13,956.892 125,957.5C 126.167,956.333 127.333,955.167 128.5,954C 127.483,952.951 127.316,951.784 128,950.5C 129.5,952 131,953.5 132.5,955C 131.809,956.067 131.309,957.234 131,958.5C 130.667,957.5 130.333,956.5 130,955.5C 128.981,957.269 128.814,958.936 129.5,960.5C 126.419,960.726 125.919,962.392 128,965.5C 128.957,963.291 130.124,963.457 131.5,966C 130.151,967.635 130.318,969.135 132,970.5C 132.811,969.04 133.645,968.707 134.5,969.5C 131.891,972.725 131.891,975.891 134.5,979C 134.887,982.247 134.887,985.58 134.5,989C 135.603,992.039 137.103,994.873 139,997.5C 139.973,993.011 141.307,992.678 143,996.5C 143.667,993.833 144.333,993.833 145,996.5C 145.333,995.833 145.667,995.167 146,994.5C 146.5,996.333 147.667,997.5 149.5,998C 147.248,1000.47 147.248,1003.14 149.5,1006C 148.874,1006.75 148.374,1007.58 148,1008.5C 146.482,1008.94 145.315,1008.28 144.5,1006.5C 143.24,1004.65 143.24,1002.81 144.5,1001C 143.324,998.699 141.99,998.366 140.5,1000C 142.673,1001.86 143.007,1004.03 141.5,1006.5C 143.441,1008.83 145.107,1011.33 146.5,1014C 145.074,1016.71 145.408,1019.21 147.5,1021.5C 144.251,1021.72 143.918,1023.22 146.5,1026C 144.045,1028.66 143.878,1031.5 146,1034.5C 146.667,1030.5 147.333,1030.5 148,1034.5C 148.333,1033.5 148.667,1032.5 149,1031.5C 149.516,1034.03 150.683,1036.2 152.5,1038C 151.332,1040.16 150.665,1042.16 150.5,1044C 151.701,1044.9 152.535,1046.07 153,1047.5C 154.16,1045.2 155.16,1045.54 156,1048.5C 157.16,1046.2 158.16,1046.54 159,1049.5C 159.667,1046.83 160.333,1046.83 161,1049.5C 161.805,1047.1 162.638,1047.27 163.5,1050C 162.747,1051.49 161.914,1051.65 161,1050.5C 160.027,1052.39 159.36,1054.39 159,1056.5C 158.529,1054.75 157.862,1053.09 157,1051.5C 156.026,1053.88 155.359,1053.54 155,1050.5C 154.691,1051.77 154.191,1052.93 153.5,1054C 154.202,1056.06 153.535,1057.89 151.5,1059.5C 152.694,1062.62 154.194,1062.95 156,1060.5C 155.58,1063.11 155.914,1065.77 157,1068.5C 157.333,1067.17 157.667,1065.83 158,1064.5C 158.306,1066.91 159.139,1069.07 160.5,1071C 160.056,1072.76 159.556,1072.6 159,1070.5C 156.479,1073.35 156.146,1076.35 158,1079.5C 158.419,1078.33 159.085,1077.33 160,1076.5C 160.914,1078.66 162.081,1080.66 163.5,1082.5C 162.817,1085.46 161.984,1085.79 161,1083.5C 158.855,1085.9 159.022,1088.06 161.5,1090C 161.5,1091.67 161.5,1093.33 161.5,1095C 163.041,1096.58 164.208,1098.41 165,1100.5C 165.451,1098.07 166.285,1097.9 167.5,1100C 166.809,1101.07 166.309,1102.23 166,1103.5C 165.016,1101.21 164.183,1101.54 163.5,1104.5C 165.138,1107.3 166.971,1109.97 169,1112.5C 169.333,1111.83 169.667,1111.17 170,1110.5C 173.439,1114.56 172.606,1115.89 167.5,1114.5C 168.317,1117.48 169.151,1120.48 170,1123.5C 170.92,1123.93 171.753,1124.26 172.5,1124.5C 171.141,1126.31 171.475,1127.81 173.5,1129C 172.065,1131.27 172.398,1133.27 174.5,1135C 172.193,1136.83 172.526,1138.49 175.5,1140C 174.131,1142.24 174.631,1144.07 177,1145.5C 177.333,1145.17 177.667,1144.83 178,1144.5C 178.595,1145.9 178.428,1147.23 177.5,1148.5C 178.313,1149.81 179.313,1150.98 180.5,1152C 179.643,1152.69 178.977,1153.52 178.5,1154.5C 179.189,1156.44 179.689,1158.44 180,1160.5C 181.647,1152.5 182.647,1152.5 183,1160.5C 182.667,1159.17 182.333,1157.83 182,1156.5C 181.091,1159.51 180.258,1162.51 179.5,1165.5C 181.124,1165.36 182.29,1166.03 183,1167.5C 183.333,1166.83 183.667,1166.17 184,1165.5C 185.044,1166.62 185.71,1167.96 186,1169.5C 186.594,1165.18 188.094,1164.68 190.5,1168C 189.285,1170.1 188.451,1169.93 188,1167.5C 186.878,1169.42 186.044,1171.42 185.5,1173.5C 187.681,1173.28 189.347,1174.12 190.5,1176C 189.214,1178.02 188.214,1180.19 187.5,1182.5C 189.425,1185.12 191.258,1187.78 193,1190.5C 194.085,1188.34 195.251,1188.18 196.5,1190C 193.125,1195.31 191.125,1200.81 190.5,1206.5C 191.713,1209.1 193.047,1211.6 194.5,1214C 193.67,1215.47 193.504,1216.97 194,1218.5C 194.667,1219.83 195.333,1219.83 196,1218.5C 197.487,1219.25 197.654,1220.09 196.5,1221C 198.026,1223.14 199.693,1224.3 201.5,1224.5C 199.475,1227.22 199.475,1229.72 201.5,1232C 198.526,1233.51 198.193,1235.17 200.5,1237C 199.833,1237.67 199.167,1238.33 198.5,1239C 200.049,1240.21 201.215,1241.71 202,1243.5C 202.333,1242.83 202.667,1242.17 203,1241.5C 204.574,1242.98 205.907,1244.65 207,1246.5C 209.882,1244.22 210.215,1244.89 208,1248.5C 206.817,1247.27 205.651,1247.27 204.5,1248.5C 205.711,1249.87 206.711,1251.37 207.5,1253C 207.333,1253.5 207.167,1254 207,1254.5C 206.558,1252.32 205.558,1251.65 204,1252.5C 203.742,1255.61 203.575,1258.44 203.5,1261C 204.333,1261.83 205.167,1262.67 206,1263.5C 206.333,1261.17 206.667,1258.83 207,1256.5C 207.35,1258.43 208.017,1260.43 209,1262.5C 214.128,1257.29 215.294,1258.12 212.5,1265C 212.982,1266.01 213.148,1267.18 213,1268.5C 214.713,1269.88 216.047,1271.54 217,1273.5C 219.113,1271.73 218.947,1270.23 216.5,1269C 216.982,1267.99 217.148,1266.82 217,1265.5C 218.212,1268.76 220.045,1271.6 222.5,1274C 221.672,1274.91 220.672,1275.58 219.5,1276C 222.369,1278.23 223.869,1277.39 224,1273.5C 224.199,1275.4 225.033,1276.9 226.5,1278C 224.996,1279.34 223.996,1281 223.5,1283C 224.744,1283.46 225.577,1282.96 226,1281.5C 226.667,1284.17 227.333,1284.17 228,1281.5C 228.333,1282.17 228.667,1282.83 229,1283.5C 229.419,1282.33 230.085,1281.33 231,1280.5C 230.57,1282.13 230.404,1283.63 230.5,1285C 232.017,1286.78 232.851,1286.28 233,1283.5C 233.359,1286.54 234.026,1286.88 235,1284.5C 236.647,1286.63 236.314,1288.63 234,1290.5C 233.333,1287.83 232.667,1287.83 232,1290.5C 231.667,1289.83 231.333,1289.17 231,1288.5C 230.581,1289.67 229.915,1290.67 229,1291.5C 229.216,1288.46 227.716,1286.13 224.5,1284.5C 223.319,1286.14 223.319,1287.8 224.5,1289.5C 223.817,1292.46 222.984,1292.79 222,1290.5C 219.866,1293.74 220.199,1297.08 223,1300.5C 223.667,1297.83 224.333,1297.83 225,1300.5C 226.42,1295.28 227.587,1295.28 228.5,1300.5C 226.009,1301.54 226.009,1302.37 228.5,1303C 228.167,1303.33 227.833,1303.67 227.5,1304C 228.744,1304.46 229.577,1303.96 230,1302.5C 230.667,1305.17 231.333,1305.17 232,1302.5C 232.5,1304.33 233.667,1305.5 235.5,1306C 234.72,1307.07 234.887,1308.24 236,1309.5C 236.333,1308.17 236.667,1306.83 237,1305.5C 237.273,1307.1 237.773,1308.6 238.5,1310C 237.747,1311.49 236.914,1311.65 236,1310.5C 235.333,1314.5 234.667,1314.5 234,1310.5C 233.333,1314.5 232.667,1314.5 232,1310.5C 229.266,1311.36 229.099,1312.19 231.5,1313C 229.667,1313.5 228.5,1314.67 228,1316.5C 226.623,1314.25 225.123,1312.08 223.5,1310C 223.833,1309.67 224.167,1309.33 224.5,1309C 223.773,1307.6 223.273,1306.1 223,1304.5C 222.258,1307.09 221.758,1309.42 221.5,1311.5C 221.977,1312.48 222.643,1313.31 223.5,1314C 222.332,1315.87 222.832,1317.37 225,1318.5C 225.333,1318.17 225.667,1317.83 226,1317.5C 227.128,1319.35 227.628,1321.35 227.5,1323.5C 167.167,1384.17 106.833,1444.83 46.5,1505.5C 45.5,1506.17 44.5,1506.83 43.5,1507.5C 34.3795,1497.34 29.2128,1485.34 28,1471.5C 27.3333,1209.83 27.3333,948.167 28,686.5C 29.0108,672.268 34.1774,659.935 43.5,649.5 Z"/></g>
<g><path style="opacity:1" fill="#03c6fe" d="M 57.5,665.5 C 196.076,803.411 334.409,941.077 472.5,1078.5C 472.5,1078.83 472.5,1079.17 472.5,1079.5C 400.5,1151.17 328.5,1222.83 256.5,1294.5C 254.09,1291.55 252.757,1288.38 252.5,1285C 253.794,1282.91 254.794,1280.91 255.5,1279C 253.422,1277.51 252.089,1275.51 251.5,1273C 255.172,1271.63 255.506,1269.63 252.5,1267C 254.622,1265.26 254.455,1263.43 252,1261.5C 250.407,1263.29 248.907,1263.45 247.5,1262C 248.687,1260.98 249.687,1259.81 250.5,1258.5C 247.333,1256.4 247,1254.06 249.5,1251.5C 248.302,1251.06 247.135,1250.73 246,1250.5C 246.768,1248.18 245.934,1246.35 243.5,1245C 244.64,1243.03 245.973,1241.19 247.5,1239.5C 246.354,1238.28 245.354,1236.95 244.5,1235.5C 242.737,1236.95 241.403,1236.62 240.5,1234.5C 242.134,1234.49 243.634,1233.49 245,1231.5C 245.617,1230.55 245.451,1229.72 244.5,1229C 245.167,1228.33 245.833,1227.67 246.5,1227C 243.017,1224.51 242.351,1221.68 244.5,1218.5C 242.183,1216.68 240.016,1214.68 238,1212.5C 236.333,1214.17 234.667,1215.83 233,1217.5C 232.08,1214.69 232.913,1212.53 235.5,1211C 233.639,1209.14 232.306,1209.64 231.5,1212.5C 228.994,1210.16 226.661,1207.66 224.5,1205C 227.668,1204.42 228.001,1203.42 225.5,1202C 226.126,1201.25 226.626,1200.42 227,1199.5C 228.757,1199.87 230.257,1199.03 231.5,1197C 231.572,1194.82 231.238,1192.82 230.5,1191C 231.167,1190.33 231.833,1189.67 232.5,1189C 231.624,1187.41 230.624,1185.91 229.5,1184.5C 230.956,1184.68 232.289,1183.84 233.5,1182C 231.167,1179.67 228.833,1177.33 226.5,1175C 227.989,1171.8 227.156,1169.3 224,1167.5C 222.233,1168.82 220.899,1170.48 220,1172.5C 217.731,1170.16 216.231,1170.83 215.5,1174.5C 213.289,1173.81 212.955,1172.64 214.5,1171C 214.025,1169.24 213.358,1167.57 212.5,1166C 214.5,1163.33 216.5,1160.67 218.5,1158C 217.346,1157.09 217.513,1156.25 219,1155.5C 219.197,1157.52 220.197,1159.52 222,1161.5C 222.785,1159.71 223.951,1158.21 225.5,1157C 223.709,1154.59 222.043,1152.09 220.5,1149.5C 221.64,1147.07 221.64,1144.57 220.5,1142C 215.873,1138.26 215.206,1134.26 218.5,1130C 217.071,1127.56 215.237,1126.4 213,1126.5C 213.999,1123.5 212.832,1122.33 209.5,1123C 208.5,1124 207.5,1125 206.5,1126C 207.893,1128.18 209.56,1129.18 211.5,1129C 207.185,1131.17 206.852,1133.5 210.5,1136C 209.359,1136.74 209.359,1137.57 210.5,1138.5C 210.167,1138.83 209.833,1139.17 209.5,1139.5C 208.719,1138.27 208.219,1136.94 208,1135.5C 207.576,1137.52 206.742,1139.35 205.5,1141C 205.645,1141.77 205.978,1142.44 206.5,1143C 205.109,1144.02 203.609,1144.85 202,1145.5C 201.833,1145 201.667,1144.5 201.5,1144C 202.289,1143.45 203.289,1142.79 204.5,1142C 203.5,1139.91 204.167,1138.24 206.5,1137C 203.353,1133.65 203.353,1130.65 206.5,1128C 205.124,1125.46 205.79,1123.46 208.5,1122C 206.56,1117.4 207.394,1116.9 211,1120.5C 212.703,1118.65 212.536,1116.82 210.5,1115C 213.167,1113.67 213.167,1112.33 210.5,1111C 210.694,1108.24 210.694,1105.4 210.5,1102.5C 209.687,1101.19 208.687,1100.02 207.5,1099C 208.509,1094.17 207.175,1093.5 203.5,1097C 206.623,1098.95 207.123,1101.12 205,1103.5C 203.771,1101.05 202.271,1100.89 200.5,1103C 201.88,1104.32 202.214,1105.66 201.5,1107C 205.01,1113.49 203.177,1115.99 196,1114.5C 195.383,1113.55 195.549,1112.72 196.5,1112C 193.48,1109.4 192.98,1106.57 195,1103.5C 195.815,1105.62 196.815,1107.62 198,1109.5C 201.015,1107.48 201.182,1105.32 198.5,1103C 199.5,1100.91 198.833,1099.24 196.5,1098C 200.167,1097 200.5,1095.33 197.5,1093C 197.324,1091.34 197.991,1089.67 199.5,1088C 198.833,1086.67 197.833,1085.67 196.5,1085C 196.833,1084.67 197.167,1084.33 197.5,1084C 196.809,1082.93 196.309,1081.77 196,1080.5C 195.5,1081.67 194.667,1082.5 193.5,1083C 194.784,1084.3 194.617,1085.46 193,1086.5C 192.546,1084.46 191.713,1082.63 190.5,1081C 191.237,1078.2 192.07,1078.03 193,1080.5C 193.707,1078.92 194.54,1077.42 195.5,1076C 194.833,1075.67 194.167,1075.33 193.5,1075C 195.26,1074.03 195.594,1072.87 194.5,1071.5C 193.808,1072.03 193.308,1072.69 193,1073.5C 191.89,1071.96 190.39,1071.3 188.5,1071.5C 187.409,1068.61 187.409,1066.11 188.5,1064C 187.939,1062.32 186.939,1060.99 185.5,1060C 186.672,1059.58 187.672,1058.91 188.5,1058C 186.333,1055.83 184.167,1053.67 182,1051.5C 182.268,1047.98 181.101,1044.82 178.5,1042C 180.527,1040.6 180.86,1038.94 179.5,1037C 182.297,1034.72 182.63,1032.22 180.5,1029.5C 181.355,1028.71 182.189,1029.04 183,1030.5C 183.692,1029.97 184.192,1029.31 184.5,1028.5C 183.359,1027.57 183.359,1026.74 184.5,1026C 182.86,1024.61 181.36,1023.11 180,1021.5C 178.915,1023.66 177.749,1023.82 176.5,1022C 178.922,1020.11 178.922,1018.11 176.5,1016C 178.417,1013.74 178.417,1011.24 176.5,1008.5C 176.977,1007.52 177.643,1006.69 178.5,1006C 175.692,1003.76 173.692,1000.92 172.5,997.5C 169.122,997.122 168.788,998.289 171.5,1001C 170.328,1001.42 169.328,1002.09 168.5,1003C 169.641,1003.74 169.641,1004.57 168.5,1005.5C 169.277,1007.54 170.443,1008.21 172,1007.5C 174.096,1008.72 173.929,1009.55 171.5,1010C 172.654,1010.91 172.487,1011.75 171,1012.5C 168.525,1009.05 166.692,1005.21 165.5,1001C 165.13,999.39 165.797,997.89 167.5,996.5C 166.529,995.038 166.862,993.705 168.5,992.5C 167.952,990.459 167.785,988.126 168,985.5C 169,986.5 170,987.5 171,988.5C 171.692,987.975 172.192,987.308 172.5,986.5C 170.024,979.715 167.69,973.215 165.5,967C 168.474,965.494 168.807,963.828 166.5,962C 167.749,960.176 168.915,960.343 170,962.5C 171.167,961.333 172.333,960.167 173.5,959C 172.777,956.189 170.944,953.689 168,951.5C 166.667,952.833 165.333,954.167 164,955.5C 163.758,953.862 162.925,952.362 161.5,951C 161.833,950 162.167,949 162.5,948C 161.09,947.632 160.09,946.799 159.5,945.5C 160.253,943.247 161.586,941.413 163.5,940C 162.833,938.667 161.833,937.667 160.5,937C 161.91,936.632 162.91,935.799 163.5,934.5C 162.064,933.066 160.398,931.9 158.5,931C 164.196,928.836 164.696,926.002 160,922.5C 159.5,923 159,923.5 158.5,924C 159.517,925.049 159.684,926.216 159,927.5C 157.865,927.727 156.698,928.06 155.5,928.5C 157.276,929.315 157.943,930.482 157.5,932C 155.798,933.583 154.464,933.083 153.5,930.5C 152.653,932.061 152.986,933.561 154.5,935C 153.663,936.011 153.33,937.178 153.5,938.5C 149.808,938.305 147.974,936.305 148,932.5C 147.851,935.279 147.017,935.779 145.5,934C 146.647,931.915 145.98,930.415 143.5,929.5C 144.025,928.808 144.692,928.308 145.5,928C 144.692,927.692 144.025,927.192 143.5,926.5C 144.167,925.167 144.833,923.833 145.5,922.5C 144.549,918.892 145.382,918.892 148,922.5C 148.5,922 149,921.5 149.5,921C 149.106,918.749 148.606,916.249 148,913.5C 147.667,914.5 147.333,915.5 147,916.5C 145.881,915.448 145.381,914.281 145.5,913C 146.667,912.5 147.5,911.667 148,910.5C 148.465,911.931 149.299,913.097 150.5,914C 150.167,914.333 149.833,914.667 149.5,915C 150.136,921.03 152.136,921.697 155.5,917C 154.833,916.333 154.167,915.667 153.5,915C 155.227,913.611 156.561,911.944 157.5,910C 157.37,908.941 156.87,908.108 156,907.5C 153.976,911.119 151.809,911.286 149.5,908C 150.996,905.391 152.662,902.725 154.5,900C 152.833,898.333 151.167,896.667 149.5,895C 148.939,893.434 149.606,892.101 151.5,891C 149.457,889.292 147.79,887.292 146.5,885C 147.5,883 148.5,883 149.5,885C 149.167,885.333 148.833,885.667 148.5,886C 150.167,887.667 151.833,889.333 153.5,891C 151.606,892.101 150.939,893.434 151.5,895C 157.158,900.649 158.491,899.983 155.5,893C 156.022,892.439 156.355,891.772 156.5,891C 154.188,886.222 151.022,882.056 147,878.5C 145.915,880.657 144.749,880.824 143.5,879C 144.167,878.333 144.833,877.667 145.5,877C 146.061,875.434 145.394,874.101 143.5,873C 144.128,870.391 145.128,867.725 146.5,865C 145.611,862.89 144.778,860.39 144,857.5C 143.035,855.74 141.868,855.406 140.5,856.5C 141.025,857.192 141.692,857.692 142.5,858C 142.619,859.281 142.119,860.448 141,861.5C 139.667,858.833 138.333,858.833 137,861.5C 135.956,860.377 135.29,859.044 135,857.5C 134.585,859.291 133.585,860.624 132,861.5C 131.1,860.23 129.934,859.23 128.5,858.5C 129.498,855.972 130.331,855.972 131,858.5C 131.465,857.069 132.299,855.903 133.5,855C 132.072,851.526 132.572,851.026 135,853.5C 136.828,851.193 138.494,851.526 140,854.5C 140.692,853.975 141.192,853.308 141.5,852.5C 140.472,850.639 138.972,849.305 137,848.5C 137.309,845.876 136.476,843.376 134.5,841C 135.88,839.676 136.214,838.343 135.5,837C 137.019,835.649 138.352,834.149 139.5,832.5C 138.167,831.5 138.167,830.5 139.5,829.5C 137.893,825.552 135.226,822.052 131.5,819C 130.939,817.434 131.606,816.101 133.5,815C 132.761,812.765 132.761,810.765 133.5,809C 130.774,807.034 130.44,805.034 132.5,803C 131.521,801.221 131.854,799.555 133.5,798C 132.069,797.535 130.903,796.701 130,795.5C 129.097,796.701 127.931,797.535 126.5,798C 126.833,798.333 127.167,798.667 127.5,799C 125.622,800.543 124.122,802.376 123,804.5C 118.77,803.508 117.937,804.674 120.5,808C 119.978,808.561 119.645,809.228 119.5,810C 120.845,812.742 121.845,815.409 122.5,818C 120.91,819.046 119.41,820.213 118,821.5C 117.138,819.913 116.471,818.246 116,816.5C 115.667,817.5 115.333,818.5 115,819.5C 114.138,817.913 113.471,816.246 113,814.5C 112.641,817.544 111.974,817.878 111,815.5C 110.577,816.956 109.744,817.456 108.5,817C 108.818,814.958 108.985,812.791 109,810.5C 109.974,812.878 110.641,812.544 111,809.5C 111.667,810.833 112.333,812.167 113,813.5C 113.667,810.833 114.333,810.833 115,813.5C 115.374,812.584 115.874,811.75 116.5,811C 115.187,808.674 113.187,807.341 110.5,807C 111.954,804.756 113.288,802.423 114.5,800C 113.5,797.909 114.167,796.243 116.5,795C 115.315,793.647 113.981,792.48 112.5,791.5C 110.65,792.242 109.984,793.242 110.5,794.5C 109.207,791.069 110.207,788.403 113.5,786.5C 112.609,785.41 111.609,785.41 110.5,786.5C 108.251,785.011 107.418,783.011 108,780.5C 109.667,783.167 111.333,783.167 113,780.5C 112.302,778.236 112.802,776.403 114.5,775C 111.774,771.658 109.108,768.324 106.5,765C 106.259,763.438 106.759,761.938 108,760.5C 108.667,764.5 109.333,764.5 110,760.5C 111.316,763.028 112.483,763.028 113.5,760.5C 112.96,759.252 112.293,758.085 111.5,757C 111.833,756.667 112.167,756.333 112.5,756C 109.398,753.647 107.398,750.981 106.5,748C 106.381,746.719 106.881,745.552 108,744.5C 107.822,746.44 108.822,748.107 111,749.5C 113.925,747.855 114.092,745.855 111.5,743.5C 111.709,742.914 112.043,742.414 112.5,742C 110.167,741 108.5,739.333 107.5,737C 108.019,734.974 108.353,732.974 108.5,731C 106.775,730.135 105.108,729.469 103.5,729C 104.458,727.853 104.125,726.853 102.5,726C 104.394,724.899 105.061,723.566 104.5,722C 100.474,718.34 97.1409,714.673 94.5,711C 96.4337,708.729 96.4337,706.729 94.5,705C 89.0183,701.65 88.3516,702.483 92.5,707.5C 91.91,708.799 90.91,709.632 89.5,710C 90.4589,712.69 89.7922,713.024 87.5,711C 86.5651,707.73 86.5651,704.563 87.5,701.5C 86.2954,699.862 84.9621,699.529 83.5,700.5C 86.0088,702.59 85.6754,704.423 82.5,706C 83.5171,707.049 83.6838,708.216 83,709.5C 80.3554,707.068 79.8554,704.734 81.5,702.5C 81.3333,701.833 81.1667,701.167 81,700.5C 80.6667,701.5 80.3333,702.5 80,703.5C 78.2602,702.284 77.2602,700.618 77,698.5C 76.5604,700.076 75.727,701.41 74.5,702.5C 77.5771,704.948 77.9105,707.948 75.5,711.5C 74.7087,710.934 74.7087,710.101 75.5,709C 75.0656,706.684 74.0656,704.684 72.5,703C 72.8333,702.667 73.1667,702.333 73.5,702C 72.5,701 71.5,700 70.5,699C 73.1667,698.333 73.1667,697.667 70.5,697C 72.1667,695.5 73.8333,694 75.5,692.5C 75.8333,693.167 76.1667,693.833 76.5,694.5C 78.2029,693.11 78.8696,691.61 78.5,690C 77.8742,689.25 77.3742,688.416 77,687.5C 76.082,689.632 74.7487,690.299 73,689.5C 72.2608,684.022 69.9275,679.355 66,675.5C 64.8808,676.552 64.3808,677.719 64.5,679C 67.7267,681.511 69.3934,684.511 69.5,688C 68.7248,689.23 67.7248,689.563 66.5,689C 66.8333,687.333 67.1667,685.667 67.5,684C 64.732,682.238 63.232,679.738 63,676.5C 62.6667,677.833 62.3333,679.167 62,680.5C 61.8008,678.598 60.9675,677.098 59.5,676C 64.6649,674.521 64.8316,672.688 60,670.5C 58.9055,668.922 58.0722,667.255 57.5,665.5 Z"/></g>
<g><path style="opacity:1" fill="#02cdfe" d="M 47.5,655.5 C 51.1667,658.5 54.5,661.833 57.5,665.5C 58.0722,667.255 58.9055,668.922 60,670.5C 64.8316,672.688 64.6649,674.521 59.5,676C 60.9675,677.098 61.8008,678.598 62,680.5C 62.3333,679.167 62.6667,677.833 63,676.5C 63.232,679.738 64.732,682.238 67.5,684C 67.1667,685.667 66.8333,687.333 66.5,689C 67.7248,689.563 68.7248,689.23 69.5,688C 69.3934,684.511 67.7267,681.511 64.5,679C 64.3808,677.719 64.8808,676.552 66,675.5C 69.9275,679.355 72.2608,684.022 73,689.5C 74.7487,690.299 76.082,689.632 77,687.5C 77.3742,688.416 77.8742,689.25 78.5,690C 78.8696,691.61 78.2029,693.11 76.5,694.5C 76.1667,693.833 75.8333,693.167 75.5,692.5C 73.8333,694 72.1667,695.5 70.5,697C 73.1667,697.667 73.1667,698.333 70.5,699C 71.5,700 72.5,701 73.5,702C 73.1667,702.333 72.8333,702.667 72.5,703C 74.0656,704.684 75.0656,706.684 75.5,709C 74.7087,710.101 74.7087,710.934 75.5,711.5C 77.9105,707.948 77.5771,704.948 74.5,702.5C 75.727,701.41 76.5604,700.076 77,698.5C 77.2602,700.618 78.2602,702.284 80,703.5C 80.3333,702.5 80.6667,701.5 81,700.5C 81.1667,701.167 81.3333,701.833 81.5,702.5C 79.8554,704.734 80.3554,707.068 83,709.5C 83.6838,708.216 83.5171,707.049 82.5,706C 85.6754,704.423 86.0088,702.59 83.5,700.5C 84.9621,699.529 86.2954,699.862 87.5,701.5C 86.5651,704.563 86.5651,707.73 87.5,711C 89.7922,713.024 90.4589,712.69 89.5,710C 90.91,709.632 91.91,708.799 92.5,707.5C 88.3516,702.483 89.0183,701.65 94.5,705C 96.4337,706.729 96.4337,708.729 94.5,711C 97.1409,714.673 100.474,718.34 104.5,722C 105.061,723.566 104.394,724.899 102.5,726C 104.125,726.853 104.458,727.853 103.5,729C 105.108,729.469 106.775,730.135 108.5,731C 108.353,732.974 108.019,734.974 107.5,737C 108.5,739.333 110.167,741 112.5,742C 112.043,742.414 111.709,742.914 111.5,743.5C 114.092,745.855 113.925,747.855 111,749.5C 108.822,748.107 107.822,746.44 108,744.5C 106.881,745.552 106.381,746.719 106.5,748C 107.398,750.981 109.398,753.647 112.5,756C 112.167,756.333 111.833,756.667 111.5,757C 112.293,758.085 112.96,759.252 113.5,760.5C 112.483,763.028 111.316,763.028 110,760.5C 109.333,764.5 108.667,764.5 108,760.5C 106.759,761.938 106.259,763.438 106.5,765C 109.108,768.324 111.774,771.658 114.5,775C 112.802,776.403 112.302,778.236 113,780.5C 111.333,783.167 109.667,783.167 108,780.5C 107.418,783.011 108.251,785.011 110.5,786.5C 111.609,785.41 112.609,785.41 113.5,786.5C 110.207,788.403 109.207,791.069 110.5,794.5C 109.984,793.242 110.65,792.242 112.5,791.5C 113.981,792.48 115.315,793.647 116.5,795C 114.167,796.243 113.5,797.909 114.5,800C 113.288,802.423 111.954,804.756 110.5,807C 113.187,807.341 115.187,808.674 116.5,811C 115.874,811.75 115.374,812.584 115,813.5C 114.333,810.833 113.667,810.833 113,813.5C 112.333,812.167 111.667,810.833 111,809.5C 110.641,812.544 109.974,812.878 109,810.5C 108.985,812.791 108.818,814.958 108.5,817C 109.744,817.456 110.577,816.956 111,815.5C 111.974,817.878 112.641,817.544 113,814.5C 113.471,816.246 114.138,817.913 115,819.5C 115.333,818.5 115.667,817.5 116,816.5C 116.471,818.246 117.138,819.913 118,821.5C 119.41,820.213 120.91,819.046 122.5,818C 121.845,815.409 120.845,812.742 119.5,810C 119.645,809.228 119.978,808.561 120.5,808C 117.937,804.674 118.77,803.508 123,804.5C 124.122,802.376 125.622,800.543 127.5,799C 127.167,798.667 126.833,798.333 126.5,798C 127.931,797.535 129.097,796.701 130,795.5C 130.903,796.701 132.069,797.535 133.5,798C 131.854,799.555 131.521,801.221 132.5,803C 130.44,805.034 130.774,807.034 133.5,809C 132.761,810.765 132.761,812.765 133.5,815C 131.606,816.101 130.939,817.434 131.5,819C 135.226,822.052 137.893,825.552 139.5,829.5C 138.167,830.5 138.167,831.5 139.5,832.5C 138.352,834.149 137.019,835.649 135.5,837C 136.214,838.343 135.88,839.676 134.5,841C 136.476,843.376 137.309,845.876 137,848.5C 138.972,849.305 140.472,850.639 141.5,852.5C 141.192,853.308 140.692,853.975 140,854.5C 138.494,851.526 136.828,851.193 135,853.5C 132.572,851.026 132.072,851.526 133.5,855C 132.299,855.903 131.465,857.069 131,858.5C 130.331,855.972 129.498,855.972 128.5,858.5C 129.934,859.23 131.1,860.23 132,861.5C 133.585,860.624 134.585,859.291 135,857.5C 135.29,859.044 135.956,860.377 137,861.5C 138.333,858.833 139.667,858.833 141,861.5C 142.119,860.448 142.619,859.281 142.5,858C 141.692,857.692 141.025,857.192 140.5,856.5C 141.868,855.406 143.035,855.74 144,857.5C 144.778,860.39 145.611,862.89 146.5,865C 145.128,867.725 144.128,870.391 143.5,873C 145.394,874.101 146.061,875.434 145.5,877C 144.833,877.667 144.167,878.333 143.5,879C 144.749,880.824 145.915,880.657 147,878.5C 151.022,882.056 154.188,886.222 156.5,891C 156.355,891.772 156.022,892.439 155.5,893C 158.491,899.983 157.158,900.649 151.5,895C 150.939,893.434 151.606,892.101 153.5,891C 151.833,889.333 150.167,887.667 148.5,886C 148.833,885.667 149.167,885.333 149.5,885C 148.5,883 147.5,883 146.5,885C 147.79,887.292 149.457,889.292 151.5,891C 149.606,892.101 148.939,893.434 149.5,895C 151.167,896.667 152.833,898.333 154.5,900C 152.662,902.725 150.996,905.391 149.5,908C 151.809,911.286 153.976,911.119 156,907.5C 156.87,908.108 157.37,908.941 157.5,910C 156.561,911.944 155.227,913.611 153.5,915C 154.167,915.667 154.833,916.333 155.5,917C 152.136,921.697 150.136,921.03 149.5,915C 149.833,914.667 150.167,914.333 150.5,914C 149.299,913.097 148.465,911.931 148,910.5C 147.5,911.667 146.667,912.5 145.5,913C 145.381,914.281 145.881,915.448 147,916.5C 147.333,915.5 147.667,914.5 148,913.5C 148.606,916.249 149.106,918.749 149.5,921C 149,921.5 148.5,922 148,922.5C 145.382,918.892 144.549,918.892 145.5,922.5C 144.833,923.833 144.167,925.167 143.5,926.5C 144.025,927.192 144.692,927.692 145.5,928C 144.692,928.308 144.025,928.808 143.5,929.5C 145.98,930.415 146.647,931.915 145.5,934C 147.017,935.779 147.851,935.279 148,932.5C 147.974,936.305 149.808,938.305 153.5,938.5C 153.33,937.178 153.663,936.011 154.5,935C 152.986,933.561 152.653,932.061 153.5,930.5C 154.464,933.083 155.798,933.583 157.5,932C 157.943,930.482 157.276,929.315 155.5,928.5C 156.698,928.06 157.865,927.727 159,927.5C 159.684,926.216 159.517,925.049 158.5,924C 159,923.5 159.5,923 160,922.5C 164.696,926.002 164.196,928.836 158.5,931C 160.398,931.9 162.064,933.066 163.5,934.5C 162.91,935.799 161.91,936.632 160.5,937C 161.833,937.667 162.833,938.667 163.5,940C 161.586,941.413 160.253,943.247 159.5,945.5C 160.09,946.799 161.09,947.632 162.5,948C 162.167,949 161.833,950 161.5,951C 162.925,952.362 163.758,953.862 164,955.5C 165.333,954.167 166.667,952.833 168,951.5C 170.944,953.689 172.777,956.189 173.5,959C 172.333,960.167 171.167,961.333 170,962.5C 168.915,960.343 167.749,960.176 166.5,962C 168.807,963.828 168.474,965.494 165.5,967C 167.69,973.215 170.024,979.715 172.5,986.5C 172.192,987.308 171.692,987.975 171,988.5C 170,987.5 169,986.5 168,985.5C 167.785,988.126 167.952,990.459 168.5,992.5C 166.862,993.705 166.529,995.038 167.5,996.5C 165.797,997.89 165.13,999.39 165.5,1001C 166.692,1005.21 168.525,1009.05 171,1012.5C 172.487,1011.75 172.654,1010.91 171.5,1010C 173.929,1009.55 174.096,1008.72 172,1007.5C 170.443,1008.21 169.277,1007.54 168.5,1005.5C 169.641,1004.57 169.641,1003.74 168.5,1003C 169.328,1002.09 170.328,1001.42 171.5,1001C 168.788,998.289 169.122,997.122 172.5,997.5C 173.692,1000.92 175.692,1003.76 178.5,1006C 177.643,1006.69 176.977,1007.52 176.5,1008.5C 178.417,1011.24 178.417,1013.74 176.5,1016C 178.922,1018.11 178.922,1020.11 176.5,1022C 177.749,1023.82 178.915,1023.66 180,1021.5C 181.36,1023.11 182.86,1024.61 184.5,1026C 183.359,1026.74 183.359,1027.57 184.5,1028.5C 184.192,1029.31 183.692,1029.97 183,1030.5C 182.189,1029.04 181.355,1028.71 180.5,1029.5C 182.63,1032.22 182.297,1034.72 179.5,1037C 180.86,1038.94 180.527,1040.6 178.5,1042C 181.101,1044.82 182.268,1047.98 182,1051.5C 184.167,1053.67 186.333,1055.83 188.5,1058C 187.672,1058.91 186.672,1059.58 185.5,1060C 186.939,1060.99 187.939,1062.32 188.5,1064C 187.409,1066.11 187.409,1068.61 188.5,1071.5C 190.39,1071.3 191.89,1071.96 193,1073.5C 193.308,1072.69 193.808,1072.03 194.5,1071.5C 195.594,1072.87 195.26,1074.03 193.5,1075C 194.167,1075.33 194.833,1075.67 195.5,1076C 194.54,1077.42 193.707,1078.92 193,1080.5C 192.07,1078.03 191.237,1078.2 190.5,1081C 191.713,1082.63 192.546,1084.46 193,1086.5C 194.617,1085.46 194.784,1084.3 193.5,1083C 194.667,1082.5 195.5,1081.67 196,1080.5C 196.309,1081.77 196.809,1082.93 197.5,1084C 197.167,1084.33 196.833,1084.67 196.5,1085C 197.833,1085.67 198.833,1086.67 199.5,1088C 197.991,1089.67 197.324,1091.34 197.5,1093C 200.5,1095.33 200.167,1097 196.5,1098C 198.833,1099.24 199.5,1100.91 198.5,1103C 201.182,1105.32 201.015,1107.48 198,1109.5C 196.815,1107.62 195.815,1105.62 195,1103.5C 192.98,1106.57 193.48,1109.4 196.5,1112C 195.549,1112.72 195.383,1113.55 196,1114.5C 203.177,1115.99 205.01,1113.49 201.5,1107C 202.214,1105.66 201.88,1104.32 200.5,1103C 202.271,1100.89 203.771,1101.05 205,1103.5C 207.123,1101.12 206.623,1098.95 203.5,1097C 207.175,1093.5 208.509,1094.17 207.5,1099C 208.687,1100.02 209.687,1101.19 210.5,1102.5C 210.694,1105.4 210.694,1108.24 210.5,1111C 213.167,1112.33 213.167,1113.67 210.5,1115C 212.536,1116.82 212.703,1118.65 211,1120.5C 207.394,1116.9 206.56,1117.4 208.5,1122C 205.79,1123.46 205.124,1125.46 206.5,1128C 203.353,1130.65 203.353,1133.65 206.5,1137C 204.167,1138.24 203.5,1139.91 204.5,1142C 203.289,1142.79 202.289,1143.45 201.5,1144C 201.667,1144.5 201.833,1145 202,1145.5C 203.609,1144.85 205.109,1144.02 206.5,1143C 205.978,1142.44 205.645,1141.77 205.5,1141C 206.742,1139.35 207.576,1137.52 208,1135.5C 208.219,1136.94 208.719,1138.27 209.5,1139.5C 209.833,1139.17 210.167,1138.83 210.5,1138.5C 209.359,1137.57 209.359,1136.74 210.5,1136C 206.852,1133.5 207.185,1131.17 211.5,1129C 209.56,1129.18 207.893,1128.18 206.5,1126C 207.5,1125 208.5,1124 209.5,1123C 212.832,1122.33 213.999,1123.5 213,1126.5C 215.237,1126.4 217.071,1127.56 218.5,1130C 215.206,1134.26 215.873,1138.26 220.5,1142C 221.64,1144.57 221.64,1147.07 220.5,1149.5C 222.043,1152.09 223.709,1154.59 225.5,1157C 223.951,1158.21 222.785,1159.71 222,1161.5C 220.197,1159.52 219.197,1157.52 219,1155.5C 217.513,1156.25 217.346,1157.09 218.5,1158C 216.5,1160.67 214.5,1163.33 212.5,1166C 213.358,1167.57 214.025,1169.24 214.5,1171C 212.955,1172.64 213.289,1173.81 215.5,1174.5C 216.231,1170.83 217.731,1170.16 220,1172.5C 220.899,1170.48 222.233,1168.82 224,1167.5C 227.156,1169.3 227.989,1171.8 226.5,1175C 228.833,1177.33 231.167,1179.67 233.5,1182C 232.289,1183.84 230.956,1184.68 229.5,1184.5C 230.624,1185.91 231.624,1187.41 232.5,1189C 231.833,1189.67 231.167,1190.33 230.5,1191C 231.238,1192.82 231.572,1194.82 231.5,1197C 230.257,1199.03 228.757,1199.87 227,1199.5C 226.626,1200.42 226.126,1201.25 225.5,1202C 228.001,1203.42 227.668,1204.42 224.5,1205C 226.661,1207.66 228.994,1210.16 231.5,1212.5C 232.306,1209.64 233.639,1209.14 235.5,1211C 232.913,1212.53 232.08,1214.69 233,1217.5C 234.667,1215.83 236.333,1214.17 238,1212.5C 240.016,1214.68 242.183,1216.68 244.5,1218.5C 242.351,1221.68 243.017,1224.51 246.5,1227C 245.833,1227.67 245.167,1228.33 244.5,1229C 245.451,1229.72 245.617,1230.55 245,1231.5C 243.634,1233.49 242.134,1234.49 240.5,1234.5C 241.403,1236.62 242.737,1236.95 244.5,1235.5C 245.354,1236.95 246.354,1238.28 247.5,1239.5C 245.973,1241.19 244.64,1243.03 243.5,1245C 245.934,1246.35 246.768,1248.18 246,1250.5C 247.135,1250.73 248.302,1251.06 249.5,1251.5C 247,1254.06 247.333,1256.4 250.5,1258.5C 249.687,1259.81 248.687,1260.98 247.5,1262C 248.907,1263.45 250.407,1263.29 252,1261.5C 254.455,1263.43 254.622,1265.26 252.5,1267C 255.506,1269.63 255.172,1271.63 251.5,1273C 252.089,1275.51 253.422,1277.51 255.5,1279C 254.794,1280.91 253.794,1282.91 252.5,1285C 252.757,1288.38 254.09,1291.55 256.5,1294.5C 247.167,1304.5 237.5,1314.17 227.5,1323.5C 227.628,1321.35 227.128,1319.35 226,1317.5C 225.667,1317.83 225.333,1318.17 225,1318.5C 222.832,1317.37 222.332,1315.87 223.5,1314C 222.643,1313.31 221.977,1312.48 221.5,1311.5C 221.758,1309.42 222.258,1307.09 223,1304.5C 223.273,1306.1 223.773,1307.6 224.5,1309C 224.167,1309.33 223.833,1309.67 223.5,1310C 225.123,1312.08 226.623,1314.25 228,1316.5C 228.5,1314.67 229.667,1313.5 231.5,1313C 229.099,1312.19 229.266,1311.36 232,1310.5C 232.667,1314.5 233.333,1314.5 234,1310.5C 234.667,1314.5 235.333,1314.5 236,1310.5C 236.914,1311.65 237.747,1311.49 238.5,1310C 237.773,1308.6 237.273,1307.1 237,1305.5C 236.667,1306.83 236.333,1308.17 236,1309.5C 234.887,1308.24 234.72,1307.07 235.5,1306C 233.667,1305.5 232.5,1304.33 232,1302.5C 231.333,1305.17 230.667,1305.17 230,1302.5C 229.577,1303.96 228.744,1304.46 227.5,1304C 227.833,1303.67 228.167,1303.33 228.5,1303C 226.009,1302.37 226.009,1301.54 228.5,1300.5C 227.587,1295.28 226.42,1295.28 225,1300.5C 224.333,1297.83 223.667,1297.83 223,1300.5C 220.199,1297.08 219.866,1293.74 222,1290.5C 222.984,1292.79 223.817,1292.46 224.5,1289.5C 223.319,1287.8 223.319,1286.14 224.5,1284.5C 227.716,1286.13 229.216,1288.46 229,1291.5C 229.915,1290.67 230.581,1289.67 231,1288.5C 231.333,1289.17 231.667,1289.83 232,1290.5C 232.667,1287.83 233.333,1287.83 234,1290.5C 236.314,1288.63 236.647,1286.63 235,1284.5C 234.026,1286.88 233.359,1286.54 233,1283.5C 232.851,1286.28 232.017,1286.78 230.5,1285C 230.404,1283.63 230.57,1282.13 231,1280.5C 230.085,1281.33 229.419,1282.33 229,1283.5C 228.667,1282.83 228.333,1282.17 228,1281.5C 227.333,1284.17 226.667,1284.17 226,1281.5C 225.577,1282.96 224.744,1283.46 223.5,1283C 223.996,1281 224.996,1279.34 226.5,1278C 225.033,1276.9 224.199,1275.4 224,1273.5C 223.869,1277.39 222.369,1278.23 219.5,1276C 220.672,1275.58 221.672,1274.91 222.5,1274C 220.045,1271.6 218.212,1268.76 217,1265.5C 217.148,1266.82 216.982,1267.99 216.5,1269C 218.947,1270.23 219.113,1271.73 217,1273.5C 216.047,1271.54 214.713,1269.88 213,1268.5C 213.148,1267.18 212.982,1266.01 212.5,1265C 215.294,1258.12 214.128,1257.29 209,1262.5C 208.017,1260.43 207.35,1258.43 207,1256.5C 206.667,1258.83 206.333,1261.17 206,1263.5C 205.167,1262.67 204.333,1261.83 203.5,1261C 203.575,1258.44 203.742,1255.61 204,1252.5C 205.558,1251.65 206.558,1252.32 207,1254.5C 207.167,1254 207.333,1253.5 207.5,1253C 206.711,1251.37 205.711,1249.87 204.5,1248.5C 205.651,1247.27 206.817,1247.27 208,1248.5C 210.215,1244.89 209.882,1244.22 207,1246.5C 205.907,1244.65 204.574,1242.98 203,1241.5C 202.667,1242.17 202.333,1242.83 202,1243.5C 201.215,1241.71 200.049,1240.21 198.5,1239C 199.167,1238.33 199.833,1237.67 200.5,1237C 198.193,1235.17 198.526,1233.51 201.5,1232C 199.475,1229.72 199.475,1227.22 201.5,1224.5C 199.693,1224.3 198.026,1223.14 196.5,1221C 197.654,1220.09 197.487,1219.25 196,1218.5C 195.333,1219.83 194.667,1219.83 194,1218.5C 193.504,1216.97 193.67,1215.47 194.5,1214C 193.047,1211.6 191.713,1209.1 190.5,1206.5C 191.125,1200.81 193.125,1195.31 196.5,1190C 195.251,1188.18 194.085,1188.34 193,1190.5C 191.258,1187.78 189.425,1185.12 187.5,1182.5C 188.214,1180.19 189.214,1178.02 190.5,1176C 189.347,1174.12 187.681,1173.28 185.5,1173.5C 186.044,1171.42 186.878,1169.42 188,1167.5C 188.451,1169.93 189.285,1170.1 190.5,1168C 188.094,1164.68 186.594,1165.18 186,1169.5C 185.71,1167.96 185.044,1166.62 184,1165.5C 183.667,1166.17 183.333,1166.83 183,1167.5C 182.29,1166.03 181.124,1165.36 179.5,1165.5C 180.258,1162.51 181.091,1159.51 182,1156.5C 182.333,1157.83 182.667,1159.17 183,1160.5C 182.647,1152.5 181.647,1152.5 180,1160.5C 179.689,1158.44 179.189,1156.44 178.5,1154.5C 178.977,1153.52 179.643,1152.69 180.5,1152C 179.313,1150.98 178.313,1149.81 177.5,1148.5C 178.428,1147.23 178.595,1145.9 178,1144.5C 177.667,1144.83 177.333,1145.17 177,1145.5C 174.631,1144.07 174.131,1142.24 175.5,1140C 172.526,1138.49 172.193,1136.83 174.5,1135C 172.398,1133.27 172.065,1131.27 173.5,1129C 171.475,1127.81 171.141,1126.31 172.5,1124.5C 171.753,1124.26 170.92,1123.93 170,1123.5C 169.151,1120.48 168.317,1117.48 167.5,1114.5C 172.606,1115.89 173.439,1114.56 170,1110.5C 169.667,1111.17 169.333,1111.83 169,1112.5C 166.971,1109.97 165.138,1107.3 163.5,1104.5C 164.183,1101.54 165.016,1101.21 166,1103.5C 166.309,1102.23 166.809,1101.07 167.5,1100C 166.285,1097.9 165.451,1098.07 165,1100.5C 164.208,1098.41 163.041,1096.58 161.5,1095C 161.5,1093.33 161.5,1091.67 161.5,1090C 159.022,1088.06 158.855,1085.9 161,1083.5C 161.984,1085.79 162.817,1085.46 163.5,1082.5C 162.081,1080.66 160.914,1078.66 160,1076.5C 159.085,1077.33 158.419,1078.33 158,1079.5C 156.146,1076.35 156.479,1073.35 159,1070.5C 159.556,1072.6 160.056,1072.76 160.5,1071C 159.139,1069.07 158.306,1066.91 158,1064.5C 157.667,1065.83 157.333,1067.17 157,1068.5C 155.914,1065.77 155.58,1063.11 156,1060.5C 154.194,1062.95 152.694,1062.62 151.5,1059.5C 153.535,1057.89 154.202,1056.06 153.5,1054C 154.191,1052.93 154.691,1051.77 155,1050.5C 155.359,1053.54 156.026,1053.88 157,1051.5C 157.862,1053.09 158.529,1054.75 159,1056.5C 159.36,1054.39 160.027,1052.39 161,1050.5C 161.914,1051.65 162.747,1051.49 163.5,1050C 162.638,1047.27 161.805,1047.1 161,1049.5C 160.333,1046.83 159.667,1046.83 159,1049.5C 158.16,1046.54 157.16,1046.2 156,1048.5C 155.16,1045.54 154.16,1045.2 153,1047.5C 152.535,1046.07 151.701,1044.9 150.5,1044C 150.665,1042.16 151.332,1040.16 152.5,1038C 150.683,1036.2 149.516,1034.03 149,1031.5C 148.667,1032.5 148.333,1033.5 148,1034.5C 147.333,1030.5 146.667,1030.5 146,1034.5C 143.878,1031.5 144.045,1028.66 146.5,1026C 143.918,1023.22 144.251,1021.72 147.5,1021.5C 145.408,1019.21 145.074,1016.71 146.5,1014C 145.107,1011.33 143.441,1008.83 141.5,1006.5C 143.007,1004.03 142.673,1001.86 140.5,1000C 141.99,998.366 143.324,998.699 144.5,1001C 143.24,1002.81 143.24,1004.65 144.5,1006.5C 145.315,1008.28 146.482,1008.94 148,1008.5C 148.374,1007.58 148.874,1006.75 149.5,1006C 147.248,1003.14 147.248,1000.47 149.5,998C 147.667,997.5 146.5,996.333 146,994.5C 145.667,995.167 145.333,995.833 145,996.5C 144.333,993.833 143.667,993.833 143,996.5C 141.307,992.678 139.973,993.011 139,997.5C 137.103,994.873 135.603,992.039 134.5,989C 134.887,985.58 134.887,982.247 134.5,979C 131.891,975.891 131.891,972.725 134.5,969.5C 133.645,968.707 132.811,969.04 132,970.5C 130.318,969.135 130.151,967.635 131.5,966C 130.124,963.457 128.957,963.291 128,965.5C 125.919,962.392 126.419,960.726 129.5,960.5C 128.814,958.936 128.981,957.269 130,955.5C 130.333,956.5 130.667,957.5 131,958.5C 131.309,957.234 131.809,956.067 132.5,955C 131,953.5 129.5,952 128,950.5C 127.316,951.784 127.483,952.951 128.5,954C 127.333,955.167 126.167,956.333 125,957.5C 124.13,956.892 123.63,956.059 123.5,955C 124.094,952.21 125.261,949.71 127,947.5C 127.333,948.167 127.667,948.833 128,949.5C 128.635,947.365 128.301,945.365 127,943.5C 125.853,944.458 124.853,944.125 124,942.5C 123.997,939.284 122.831,936.617 120.5,934.5C 120.607,931.94 120.607,929.44 120.5,927C 119.711,925.374 118.711,923.874 117.5,922.5C 118.154,920.885 118.654,919.218 119,917.5C 119.547,922.734 120.38,922.734 121.5,917.5C 120.902,916.205 120.402,914.872 120,913.5C 119.667,914.5 119.333,915.5 119,916.5C 118.727,914.671 117.893,913.171 116.5,912C 117.167,911.333 117.833,910.667 118.5,910C 117.285,907.904 116.451,908.071 116,910.5C 115.683,908.699 115.016,908.366 114,909.5C 111.651,905.52 112.651,904.187 117,905.5C 117.5,905 118,904.5 118.5,904C 116.441,902.815 116.274,901.648 118,900.5C 119.221,901.272 120.221,902.272 121,903.5C 121.465,902.069 122.299,900.903 123.5,900C 122.809,898.933 122.309,897.766 122,896.5C 121.667,897.5 121.333,898.5 121,899.5C 120.405,895.918 119.071,895.584 117,898.5C 112.923,892.794 111.59,893.461 113,900.5C 113.333,900.167 113.667,899.833 114,899.5C 115.615,900.656 115.615,901.989 114,903.5C 112.014,902.721 110.181,901.055 108.5,898.5C 109.742,894.659 110.742,890.826 111.5,887C 110.643,886.311 109.977,885.478 109.5,884.5C 110.137,881.861 109.303,879.528 107,877.5C 106.667,878.167 106.333,878.833 106,879.5C 105.069,877.541 104.236,875.541 103.5,873.5C 104.985,872.828 106.151,873.494 107,875.5C 108.205,874.929 109.372,874.262 110.5,873.5C 109.502,870.972 108.669,870.972 108,873.5C 106.022,871.254 105.022,868.921 105,866.5C 104.667,867.833 104.333,869.167 104,870.5C 103.654,868.782 103.154,867.115 102.5,865.5C 102.709,864.914 103.043,864.414 103.5,864C 102.285,861.904 101.451,862.071 101,864.5C 99.5986,862.854 99.432,861.187 100.5,859.5C 101.914,860.624 103.414,861.624 105,862.5C 105.333,861.833 105.667,861.167 106,860.5C 107.12,863.389 108.787,865.056 111,865.5C 111.263,863.14 110.43,861.14 108.5,859.5C 109.688,859.693 111.022,859.193 112.5,858C 110.519,857.395 110.185,856.395 111.5,855C 110.638,852.266 109.805,852.099 109,854.5C 107.84,852.203 106.84,852.536 106,855.5C 105.333,852.833 104.667,852.833 104,855.5C 103.333,852.833 102.667,852.833 102,855.5C 101.63,853.336 100.796,851.336 99.5,849.5C 100.326,848.549 100.492,847.549 100,846.5C 97.9646,844.088 96.9646,844.755 97,848.5C 96.654,846.782 96.154,845.115 95.5,843.5C 95.7093,842.914 96.0426,842.414 96.5,842C 92.3084,839.204 91.8084,836.038 95,832.5C 95.8333,834.167 96.6667,835.833 97.5,837.5C 96.1451,838.675 96.3117,839.675 98,840.5C 101.015,836.046 99.8488,832.712 94.5,830.5C 95.3256,829.549 95.4922,828.549 95,827.5C 93.9563,828.623 93.2896,829.956 93,831.5C 90.8707,827.056 92.0373,823.722 96.5,821.5C 96.1924,820.692 95.6924,820.025 95,819.5C 94.0164,821.795 93.1831,821.461 92.5,818.5C 95.2896,815.078 95.123,814.411 92,816.5C 89.6884,813.354 87.1884,810.354 84.5,807.5C 85.6507,806.269 86.8173,806.269 88,807.5C 88.5,807 89,806.5 89.5,806C 88.2174,803.373 86.7174,800.873 85,798.5C 84.2797,796.888 84.4464,795.388 85.5,794C 83.9262,792.174 83.0929,790.007 83,787.5C 81.6914,785.109 80.6914,785.109 80,787.5C 77.9188,784.392 78.4188,782.726 81.5,782.5C 80.6872,781.186 79.6872,780.019 78.5,779C 80.1247,778.147 80.4581,777.147 79.5,776C 80.1905,774.933 80.6905,773.766 81,772.5C 81.6667,775.167 82.3333,777.833 83,780.5C 83.3333,779.5 83.6667,778.5 84,777.5C 84.4017,778.872 84.9017,780.205 85.5,781.5C 84.1451,782.675 84.3117,783.675 86,784.5C 86.4419,782.321 87.4419,781.655 89,782.5C 89.8545,779.593 89.0212,777.26 86.5,775.5C 88.0224,773.844 87.689,772.677 85.5,772C 86.3081,771.692 86.9747,771.192 87.5,770.5C 85.1296,768.312 84.4629,765.812 85.5,763C 83.842,762.275 83.342,761.108 84,759.5C 84.805,761.901 85.6383,761.734 86.5,759C 85.6383,756.266 84.805,756.099 84,758.5C 82.1706,756.844 80.8372,754.844 80,752.5C 80.4967,755.894 81.1634,759.227 82,762.5C 81.6667,761.5 81.3333,760.5 81,759.5C 79.4345,760.061 78.1011,759.394 77,757.5C 76.8333,757.833 76.6667,758.167 76.5,758.5C 77.7787,761.112 79.4453,763.445 81.5,765.5C 80.4688,766.7 79.6355,768.034 79,769.5C 77.0302,766.032 74.8635,762.699 72.5,759.5C 74.6878,757.245 74.3545,755.078 71.5,753C 72,752.5 72.5,752 73,751.5C 73.8113,752.96 74.6446,753.293 75.5,752.5C 74.1387,750.972 72.972,749.305 72,747.5C 71.6667,748.167 71.3333,748.833 71,749.5C 70.3468,747.436 69.1801,745.769 67.5,744.5C 69.0194,742.444 69.8528,740.11 70,737.5C 70.3333,739.167 70.6667,740.833 71,742.5C 71.3095,741.234 71.8095,740.067 72.5,739C 72.2734,736.631 72.1067,734.131 72,731.5C 71.6667,732.833 71.3333,734.167 71,735.5C 70.3333,730.167 69.6667,730.167 69,735.5C 67.6982,732.212 66.5315,729.212 65.5,726.5C 66,725.5 66.5,724.5 67,723.5C 67.4512,725.929 68.2845,726.096 69.5,724C 68.3128,722.981 67.3128,721.814 66.5,720.5C 68.6661,716.854 70.6661,717.187 72.5,721.5C 71.814,723.064 71.9806,724.731 73,726.5C 73.0674,723.953 73.9007,721.786 75.5,720C 72.8562,718.183 71.1895,715.683 70.5,712.5C 73.0499,709.255 72.3832,708.755 68.5,711C 69.6719,712.868 69.5053,714.702 68,716.5C 67.3333,713.833 66.6667,713.833 66,716.5C 63.7433,712.988 61.2433,709.654 58.5,706.5C 59.4847,704.902 59.6514,703.235 59,701.5C 58.3333,702.167 57.6667,702.833 57,703.5C 55.1728,701.586 55.1728,699.586 57,697.5C 57.5556,699.595 58.0556,699.762 58.5,698C 57.3099,696.192 57.3099,694.359 58.5,692.5C 58.3333,691.833 58.1667,691.167 58,690.5C 57.6667,691.5 57.3333,692.5 57,693.5C 56.6541,691.152 55.4875,689.319 53.5,688C 56.0073,685.515 57.5073,686.015 58,689.5C 59.1524,687.234 59.6524,684.9 59.5,682.5C 59.1543,681.304 58.6543,681.304 58,682.5C 57.3333,686.5 56.6667,686.5 56,682.5C 55.3333,683.833 54.6667,683.833 54,682.5C 55.4561,679.47 55.9561,676.304 55.5,673C 55.3333,672.5 55.1667,672 55,671.5C 54.3333,672.833 53.6667,674.167 53,675.5C 51.4947,673.702 51.3281,671.868 52.5,670C 51.1068,668.829 50.2735,667.329 50,665.5C 48.4039,672.132 47.2372,671.965 46.5,665C 46.7549,663.674 47.4216,662.674 48.5,662C 47.1669,660.16 47.3335,659.66 49,660.5C 49.3333,661.833 49.6667,663.167 50,664.5C 50.8699,663.892 51.3699,663.059 51.5,662C 49.9304,659.941 48.597,657.774 47.5,655.5 Z"/></g>
<g><path style="opacity:0.998" fill="#7e8386" d="M 1193.5,833.5 C 1258.72,829.62 1314.72,850.12 1361.5,895C 1347.33,909.167 1333.17,923.333 1319,937.5C 1270.74,895.246 1215.9,884.08 1154.5,904C 1096.99,927.528 1063.15,970.028 1053,1031.5C 1045.89,1095.24 1067.39,1146.74 1117.5,1186C 1163.05,1216.13 1212.05,1223.13 1264.5,1207C 1317.34,1188.33 1347,1151.16 1353.5,1095.5C 1305.5,1095.5 1257.5,1095.5 1209.5,1095.5C 1209.5,1075.17 1209.5,1054.83 1209.5,1034.5C 1277.5,1034.5 1345.5,1034.5 1413.5,1034.5C 1422.14,1087.98 1413.31,1138.31 1387,1185.5C 1347.29,1242.87 1292.29,1273.2 1222,1276.5C 1137,1277.5 1070,1243.5 1021,1174.5C 982.363,1112.77 975.03,1047.44 999,978.5C 1025.47,914.698 1070.97,870.531 1135.5,846C 1154.49,839.58 1173.83,835.413 1193.5,833.5 Z"/></g>
<g><path style="opacity:0.999" fill="#7e8386" d="M 2377.5,848.5 C 2398.5,848.5 2419.5,848.5 2440.5,848.5C 2440.5,988.167 2440.5,1127.83 2440.5,1267.5C 2419.5,1267.5 2398.5,1267.5 2377.5,1267.5C 2377.5,1127.83 2377.5,988.167 2377.5,848.5 Z"/></g>
<g><path style="opacity:0.999" fill="#7e8386" d="M 2857.5,848.5 C 2911.17,848.333 2964.83,848.5 3018.5,849C 3066.48,853.217 3103.31,875.384 3129,915.5C 3149.79,955.354 3150.79,995.687 3132,1036.5C 3105.38,1081.66 3065.72,1106 3013,1109.5C 2982.45,1109.39 2951.62,1109.39 2920.5,1109.5C 2920.5,1162.17 2920.5,1214.83 2920.5,1267.5C 2899.5,1267.5 2878.5,1267.5 2857.5,1267.5C 2857.5,1127.83 2857.5,988.167 2857.5,848.5 Z M 2920.5,907.5 C 2953.5,907.333 2986.5,907.5 3019.5,908C 3057.88,915.881 3078.88,939.381 3082.5,978.5C 3078.36,1019.81 3055.86,1043.81 3015,1050.5C 2983.71,1050.48 2952.21,1050.48 2920.5,1050.5C 2920.5,1002.83 2920.5,955.167 2920.5,907.5 Z"/></g>
<g><path style="opacity:0.999" fill="#7e8386" d="M 3240.5,848.5 C 3241.5,988.097 3241.83,1127.76 3241.5,1267.5C 3220.83,1267.5 3200.17,1267.5 3179.5,1267.5C 3179.5,1127.83 3179.5,988.167 3179.5,848.5C 3199.83,848.5 3220.17,848.5 3240.5,848.5 Z"/></g>
<g><path style="opacity:0.49" fill="#818780" d="M 3240.5,848.5 C 3241.83,917.997 3242.5,987.83 3242.5,1058C 3242.5,1128 3242.17,1197.83 3241.5,1267.5C 3241.83,1127.76 3241.5,988.097 3240.5,848.5 Z"/></g>
<g><path style="opacity:1" fill="#fece02" d="M 618.5,934.5 C 678.933,967.884 738.933,1002.05 798.5,1037C 809.311,1045.12 816.811,1055.62 821,1068.5C 823.482,1080.27 821.649,1091.27 815.5,1101.5C 814.577,1100.7 813.577,1100.53 812.5,1101C 812.833,1101.33 813.167,1101.67 813.5,1102C 806.393,1110.38 797.726,1117.72 787.5,1124C 734.036,1153.46 682.703,1181.63 633.5,1208.5C 633.407,1206.75 633.074,1204.92 632.5,1203C 632.872,1200.68 634.205,1198.51 636.5,1196.5C 636.099,1194.57 635.099,1193.07 633.5,1192C 633.833,1191.67 634.167,1191.33 634.5,1191C 633.809,1189.93 633.309,1188.77 633,1187.5C 631.983,1190.03 630.816,1190.03 629.5,1187.5C 627.259,1184.22 625.926,1180.55 625.5,1176.5C 623.547,1177.02 621.88,1178.02 620.5,1179.5C 618.958,1178.25 617.458,1178.25 616,1179.5C 613.935,1177.18 613.602,1174.84 615,1172.5C 616.364,1173.26 617.531,1172.76 618.5,1171C 617.833,1170.33 617.167,1169.67 616.5,1169C 616.665,1167.88 616.998,1166.72 617.5,1165.5C 615.789,1163.76 614.956,1161.76 615,1159.5C 616.806,1161.95 618.306,1161.62 619.5,1158.5C 618.695,1156.53 617.361,1155.03 615.5,1154C 616.167,1153.33 616.833,1152.67 617.5,1152C 617.306,1150.57 617.306,1149.07 617.5,1147.5C 616.501,1143.55 615.334,1139.55 614,1135.5C 615.506,1138.47 617.172,1138.81 619,1136.5C 618.417,1139.5 617.917,1142.33 617.5,1145C 618.468,1148.4 619.968,1148.9 622,1146.5C 622.901,1149.07 624.234,1151.4 626,1153.5C 626.317,1151.7 626.984,1151.37 628,1152.5C 628.5,1152 629,1151.5 629.5,1151C 628.13,1149.56 627.13,1147.89 626.5,1146C 627.833,1144.67 629.167,1143.33 630.5,1142C 630.048,1140.39 628.715,1139.39 626.5,1139C 630.168,1136.38 630.168,1133.55 626.5,1130.5C 627.711,1127.59 626.711,1125.59 623.5,1124.5C 624.04,1123.25 624.707,1122.09 625.5,1121C 625.167,1120.67 624.833,1120.33 624.5,1120C 625.878,1118.29 627.545,1116.95 629.5,1116C 628.5,1115 627.5,1114 626.5,1113C 627.386,1110.49 628.72,1107.82 630.5,1105C 630.354,1102.63 629.354,1100.3 627.5,1098C 628.833,1097.33 630.167,1096.67 631.5,1096C 630.833,1095.67 630.167,1095.33 629.5,1095C 629.323,1092.45 629.657,1090.12 630.5,1088C 629.833,1087.67 629.167,1087.33 628.5,1087C 629.517,1085.95 629.684,1084.78 629,1083.5C 628.016,1085.79 627.183,1085.46 626.5,1082.5C 627.33,1080.87 627.497,1079.2 627,1077.5C 628.016,1076.37 628.683,1076.7 629,1078.5C 629.5,1077.5 630,1076.5 630.5,1075.5C 626.5,1072.17 626.5,1068.83 630.5,1065.5C 626.962,1064.35 626.628,1062.52 629.5,1060C 628.833,1058.33 628.167,1056.67 627.5,1055C 628.833,1053.67 630.167,1052.33 631.5,1051C 630.833,1050.67 630.167,1050.33 629.5,1050C 630.833,1049.33 630.833,1048.67 629.5,1048C 630.328,1047.09 631.328,1046.42 632.5,1046C 631.833,1045.67 631.167,1045.33 630.5,1045C 638.966,1041.86 639.966,1037.52 633.5,1032C 634.214,1030.66 633.88,1029.32 632.5,1028C 633.357,1027.31 634.023,1026.48 634.5,1025.5C 633.359,1024.57 633.359,1023.74 634.5,1023C 633.833,1022.33 633.167,1021.67 632.5,1021C 633.5,1019.33 634.5,1017.67 635.5,1016C 634.167,1013.33 632.833,1010.67 631.5,1008C 634.034,1005.41 634.034,1002.75 631.5,1000C 632.167,999.333 632.833,998.667 633.5,998C 631.556,995.288 629.722,992.455 628,989.5C 627.465,991.271 626.631,991.604 625.5,990.5C 628.952,987.993 629.286,985.16 626.5,982C 629.628,979.497 630.628,976.831 629.5,974C 630.362,971.247 631.695,968.747 633.5,966.5C 632.998,965.479 632.332,965.312 631.5,966C 629.68,966.979 628.513,968.479 628,970.5C 627.667,969.167 627.333,967.833 627,966.5C 626.333,968.5 625.667,970.5 625,972.5C 624,970.833 623,969.167 622,967.5C 621.667,968.167 621.333,968.833 621,969.5C 620.289,966.235 619.456,962.735 618.5,959C 618.609,956.758 618.942,954.591 619.5,952.5C 618.96,951.252 618.293,950.085 617.5,949C 618.119,947.165 618.286,944.999 618,942.5C 617.667,942.167 617.333,941.833 617,941.5C 616.333,942.833 615.667,944.167 615,945.5C 614.586,945.043 614.086,944.709 613.5,944.5C 612.24,946.353 612.24,948.186 613.5,950C 612.929,951.205 612.262,952.372 611.5,953.5C 611.62,949.72 611.287,945.72 610.5,941.5C 611.833,939.833 613.167,938.167 614.5,936.5C 615.605,935.4 616.938,934.733 618.5,934.5 Z"/></g>
<g><path style="opacity:1" fill="#fec300" d="M 596.5,955.5 C 601.313,958.127 603.147,962.127 602,967.5C 601.867,964.475 600.867,961.808 599,959.5C 594.714,961.856 594.547,964.356 598.5,967C 597.285,969.096 596.451,968.929 596,966.5C 593.866,968.578 594.032,970.412 596.5,972C 595.167,973 595.167,974 596.5,975C 592.181,977.847 591.848,980.847 595.5,984C 595.043,984.414 594.709,984.914 594.5,985.5C 596.917,988.282 598.084,991.282 598,994.5C 599.779,991.724 600.779,992.057 601,995.5C 601.897,991.586 602.397,991.752 602.5,996C 602.531,1000.4 601.864,1000.56 600.5,996.5C 597.524,998.734 596.857,1001.4 598.5,1004.5C 595.985,1005.2 595.318,1006.53 596.5,1008.5C 593.501,1010.15 592.501,1012.48 593.5,1015.5C 594.72,1014.29 595.887,1014.29 597,1015.5C 597.667,1014.17 598.333,1012.83 599,1011.5C 599.5,1012 600,1012.5 600.5,1013C 599.521,1014.78 599.854,1016.45 601.5,1018C 600.809,1019.07 600.309,1020.23 600,1021.5C 598.493,1020.47 596.993,1020.63 595.5,1022C 597.784,1023.36 597.951,1024.86 596,1026.5C 595.259,1025.36 594.425,1025.36 593.5,1026.5C 591.446,1029.62 591.612,1032.28 594,1034.5C 595.566,1035.06 596.899,1034.39 598,1032.5C 598.333,1032.83 598.667,1033.17 599,1033.5C 598.021,1035.28 598.354,1036.95 600,1038.5C 604.889,1042.67 608.723,1047.17 611.5,1052C 608.833,1053.33 608.833,1054.67 611.5,1056C 611.372,1058.75 610.539,1061.59 609,1064.5C 606.874,1058.7 603.54,1053.7 599,1049.5C 598.017,1051.45 596.85,1053.28 595.5,1055C 596.833,1057 598.167,1059 599.5,1061C 597,1061.83 596.833,1063 599,1064.5C 601.984,1062.29 602.15,1062.79 599.5,1066C 600.5,1067 601.5,1068 602.5,1069C 601.809,1070.07 601.309,1071.23 601,1072.5C 598.744,1070.62 597.077,1068.28 596,1065.5C 594.171,1067.89 594.337,1070.23 596.5,1072.5C 595.037,1075.93 593.704,1079.43 592.5,1083C 594.825,1085.36 596.158,1087.86 596.5,1090.5C 595.371,1094.11 594.038,1097.61 592.5,1101C 592.262,1103.56 593.262,1105.9 595.5,1108C 591.881,1110.02 591.714,1112.19 595,1114.5C 595.811,1113.04 596.645,1112.71 597.5,1113.5C 596.811,1115.44 596.311,1117.44 596,1119.5C 594.989,1118.66 593.822,1118.33 592.5,1118.5C 592.047,1121.65 593.047,1124.15 595.5,1126C 594.782,1127.99 593.782,1129.82 592.5,1131.5C 593.833,1132.5 595.167,1133.5 596.5,1134.5C 594.2,1136.83 594.2,1138.99 596.5,1141C 593.727,1142.99 592.06,1145.32 591.5,1148C 593.549,1150.59 595.715,1153.09 598,1155.5C 598.617,1156.45 598.451,1157.28 597.5,1158C 600.5,1161 603.5,1164 606.5,1167C 605.809,1168.07 605.309,1169.23 605,1170.5C 604.333,1166.5 603.667,1166.5 603,1170.5C 602.099,1167.93 600.766,1165.6 599,1163.5C 597.189,1165.54 595.022,1167.04 592.5,1168C 594.358,1170.02 596.025,1172.19 597.5,1174.5C 597.023,1175.48 596.357,1176.31 595.5,1177C 596.126,1177.75 596.626,1178.58 597,1179.5C 598.281,1179.38 599.448,1179.88 600.5,1181C 601.061,1182.57 600.394,1183.9 598.5,1185C 601.683,1188.02 604.683,1191.18 607.5,1194.5C 606.846,1196.12 606.346,1197.78 606,1199.5C 605.333,1194.17 604.667,1194.17 604,1199.5C 603.64,1197.39 602.973,1195.39 602,1193.5C 600.123,1197.71 600.623,1201.21 603.5,1204C 602.5,1204.33 601.5,1204.67 600.5,1205C 603.833,1208.33 607.167,1211.67 610.5,1215C 610.272,1215.4 609.938,1215.57 609.5,1215.5C 563.833,1170.17 518.167,1124.83 472.5,1079.5C 472.5,1079.17 472.5,1078.83 472.5,1078.5C 513.833,1037.5 555.167,996.5 596.5,955.5 Z"/></g>
<g><path style="opacity:0.999" fill="#7e8386" d="M 3393.5,989.5 C 3431.14,988.77 3463.97,1000.77 3492,1025.5C 3509.85,1044.2 3519.85,1066.54 3522,1092.5C 3522.83,1150.5 3522.67,1208.5 3521.5,1266.5C 3520.91,1266.71 3520.41,1267.04 3520,1267.5C 3501.33,1267.5 3482.67,1267.5 3464,1267.5C 3463.59,1267.04 3463.09,1266.71 3462.5,1266.5C 3461.83,1255.83 3461.17,1245.17 3460.5,1234.5C 3438.24,1265.44 3407.91,1278.94 3369.5,1275C 3332.18,1271.78 3304.01,1254.28 3285,1222.5C 3265.3,1169.26 3280.47,1129.42 3330.5,1103C 3374.31,1083.2 3417.81,1083.7 3461,1104.5C 3462.1,1087.2 3455.93,1073.03 3442.5,1062C 3421.4,1047.58 3398.4,1043.58 3373.5,1050C 3366.28,1052.28 3359.61,1055.61 3353.5,1060C 3347.53,1065.12 3342.53,1070.96 3338.5,1077.5C 3319.93,1070.15 3301.59,1062.31 3283.5,1054C 3298.31,1024.54 3321.64,1005.2 3353.5,996C 3366.77,992.514 3380.1,990.347 3393.5,989.5 Z M 3398.5,1139.5 C 3420.43,1138.32 3441.1,1142.82 3460.5,1153C 3461.42,1156.46 3461.26,1159.96 3460,1163.5C 3446.98,1201.94 3420.14,1220.44 3379.5,1219C 3365.99,1217.51 3354.49,1212.01 3345,1202.5C 3333.83,1177.04 3340.99,1158.54 3366.5,1147C 3376.93,1142.89 3387.59,1140.39 3398.5,1139.5 Z"/></g>
<g><path style="opacity:0.998" fill="#7e8386" d="M 1572.5,990.5 C 1618.3,988.984 1657.47,1005.32 1690,1039.5C 1722.54,1081.07 1731.54,1127.41 1717,1178.5C 1694.55,1237.92 1651.55,1270.58 1588,1276.5C 1540.74,1277.71 1501.07,1260.37 1469,1224.5C 1435.27,1178.62 1428.6,1128.95 1449,1075.5C 1468.39,1033.45 1500.56,1006.61 1545.5,995C 1554.59,993.157 1563.59,991.657 1572.5,990.5 Z M 1572.5,1047.5 C 1622.25,1047.74 1651.41,1072.41 1660,1121.5C 1663.73,1157.01 1651.57,1185.51 1623.5,1207C 1589.06,1226.14 1556.73,1223.14 1526.5,1198C 1502.79,1171.99 1495.29,1141.83 1504,1107.5C 1514.82,1073.69 1537.65,1053.69 1572.5,1047.5 Z"/></g>
<g><path style="opacity:0.998" fill="#7e8386" d="M 1885.5,990.5 C 1924.01,989.182 1958.68,1001.35 1989.5,1027C 2030.8,1068.33 2044.3,1117.5 2030,1174.5C 2014.33,1224.17 1981.5,1256.33 1931.5,1271C 1883.51,1283.3 1839.18,1273.8 1798.5,1242.5C 1762.04,1209.33 1745.88,1168 1750,1118.5C 1759.01,1053.99 1794.84,1012.82 1857.5,995C 1866.91,993.063 1876.24,991.563 1885.5,990.5 Z M 1883.5,1047.5 C 1934.57,1047.78 1964.07,1073.11 1972,1123.5C 1975.12,1159.21 1962.29,1187.38 1933.5,1208C 1900.7,1225.56 1869.7,1222.89 1840.5,1200C 1815.78,1174.96 1807.28,1145.13 1815,1110.5C 1824.66,1075 1847.49,1054 1883.5,1047.5 Z"/></g>
<g><path style="opacity:0.998" fill="#7e8386" d="M 2190.5,990.5 C 2222.82,989.165 2250.49,999.831 2273.5,1022.5C 2274.5,1014.86 2274.83,1007.2 2274.5,999.5C 2294.5,999.5 2314.5,999.5 2334.5,999.5C 2334.67,1090.17 2334.5,1180.83 2334,1271.5C 2326.31,1359.23 2279.31,1403.56 2193,1404.5C 2136.51,1399.36 2096.34,1371.19 2072.5,1320C 2090.65,1312.17 2108.82,1304.34 2127,1296.5C 2149.53,1341.91 2185.03,1356.74 2233.5,1341C 2258.34,1328.21 2271.84,1307.71 2274,1279.5C 2274.83,1267.49 2274.67,1255.49 2273.5,1243.5C 2253.08,1265.36 2227.75,1276.36 2197.5,1276.5C 2145,1272.85 2105.5,1248.52 2079,1203.5C 2055.1,1155.51 2055.77,1107.84 2081,1060.5C 2106.19,1019.48 2142.69,996.15 2190.5,990.5 Z M 2195.5,1047.5 C 2230.84,1046.41 2256.01,1061.74 2271,1093.5C 2283.99,1126.55 2281.33,1158.22 2263,1188.5C 2242.56,1214.65 2216.06,1224.15 2183.5,1217C 2149.48,1205.16 2129.98,1181.33 2125,1145.5C 2121.21,1107.44 2135.05,1077.94 2166.5,1057C 2175.74,1052.12 2185.4,1048.95 2195.5,1047.5 Z"/></g>
<g><path style="opacity:0.998" fill="#7e8386" d="M 2598.5,990.5 C 2657.4,991.621 2699.23,1019.62 2724,1074.5C 2726.98,1082.43 2730.14,1090.26 2733.5,1098C 2669.93,1124.02 2606.6,1150.52 2543.5,1177.5C 2559.92,1208.88 2585.92,1222.71 2621.5,1219C 2636.93,1217.45 2650.59,1211.78 2662.5,1202C 2669.74,1195.43 2676.24,1188.26 2682,1180.5C 2698.17,1191.33 2714.33,1202.17 2730.5,1213C 2696.78,1260.02 2651.12,1280.69 2593.5,1275C 2540.5,1267.32 2503,1239.15 2481,1190.5C 2465.87,1148.29 2467.21,1106.63 2485,1065.5C 2509.15,1019.84 2546.98,994.84 2598.5,990.5 Z M 2598.5,1046.5 C 2616.59,1044.94 2632.93,1049.44 2647.5,1060C 2652.27,1064.77 2656.27,1070.1 2659.5,1076C 2617.54,1093.6 2575.54,1111.1 2533.5,1128.5C 2533.67,1084.18 2555.34,1056.84 2598.5,1046.5 Z"/></g>
<g><path style="opacity:0.998" fill="#7e8386" d="M 3526.5,1000.5 C 3549,999.171 3571.67,999.171 3594.5,1000.5C 3618.76,1059.46 3642.93,1118.46 3667,1177.5C 3667.37,1178.91 3668.2,1179.91 3669.5,1180.5C 3694.04,1120.76 3718.04,1060.76 3741.5,1000.5C 3764.83,999.167 3788.17,999.167 3811.5,1000.5C 3753.93,1131.63 3696.93,1262.97 3640.5,1394.5C 3618.49,1394.83 3596.49,1394.5 3574.5,1393.5C 3595.5,1346.83 3616.5,1300.16 3637.5,1253.5C 3600.73,1168.96 3563.73,1084.63 3526.5,1000.5 Z"/></g>
<g><path style="opacity:1" fill="#fe173e" d="M 472.5,1079.5 C 518.167,1124.83 563.833,1170.17 609.5,1215.5C 610.833,1217.5 612.5,1219.17 614.5,1220.5C 614.5,1220.83 614.5,1221.17 614.5,1221.5C 447.869,1315.48 281.536,1409.98 115.5,1505C 98.0883,1515.83 79.7549,1518.83 60.5,1514C 55.3058,1511.91 50.6391,1509.08 46.5,1505.5C 106.833,1444.83 167.167,1384.17 227.5,1323.5C 237.5,1314.17 247.167,1304.5 256.5,1294.5C 328.5,1222.83 400.5,1151.17 472.5,1079.5 Z"/></g>
<g><path style="opacity:1" fill="#f3bc23" d="M 815.5,1101.5 C 809.376,1110.79 801.71,1118.62 792.5,1125C 734.139,1158.18 675.806,1191.35 617.5,1224.5C 616.833,1223.17 615.833,1222.17 614.5,1221.5C 614.5,1221.17 614.5,1220.83 614.5,1220.5C 614.393,1218.62 614.893,1218.29 616,1219.5C 618.225,1218.06 620.225,1216.39 622,1214.5C 623.016,1215.63 623.683,1215.3 624,1213.5C 624.333,1213.83 624.667,1214.17 625,1214.5C 626.242,1213.13 627.742,1212.13 629.5,1211.5C 630.251,1210.62 630.751,1209.62 631,1208.5C 631.705,1210.99 632.538,1210.99 633.5,1208.5C 682.703,1181.63 734.036,1153.46 787.5,1124C 797.726,1117.72 806.393,1110.38 813.5,1102C 813.167,1101.67 812.833,1101.33 812.5,1101C 813.577,1100.53 814.577,1100.7 815.5,1101.5 Z"/></g>
<g><path style="opacity:1" fill="#fec900" d="M 610.5,941.5 C 611.287,945.72 611.62,949.72 611.5,953.5C 612.262,952.372 612.929,951.205 613.5,950C 612.24,948.186 612.24,946.353 613.5,944.5C 614.086,944.709 614.586,945.043 615,945.5C 615.667,944.167 616.333,942.833 617,941.5C 617.333,941.833 617.667,942.167 618,942.5C 618.286,944.999 618.119,947.165 617.5,949C 618.293,950.085 618.96,951.252 619.5,952.5C 618.942,954.591 618.609,956.758 618.5,959C 619.456,962.735 620.289,966.235 621,969.5C 621.333,968.833 621.667,968.167 622,967.5C 623,969.167 624,970.833 625,972.5C 625.667,970.5 626.333,968.5 627,966.5C 627.333,967.833 627.667,969.167 628,970.5C 628.513,968.479 629.68,966.979 631.5,966C 632.332,965.312 632.998,965.479 633.5,966.5C 631.695,968.747 630.362,971.247 629.5,974C 630.628,976.831 629.628,979.497 626.5,982C 629.286,985.16 628.952,987.993 625.5,990.5C 626.631,991.604 627.465,991.271 628,989.5C 629.722,992.455 631.556,995.288 633.5,998C 632.833,998.667 632.167,999.333 631.5,1000C 634.034,1002.75 634.034,1005.41 631.5,1008C 632.833,1010.67 634.167,1013.33 635.5,1016C 634.5,1017.67 633.5,1019.33 632.5,1021C 633.167,1021.67 633.833,1022.33 634.5,1023C 633.359,1023.74 633.359,1024.57 634.5,1025.5C 634.023,1026.48 633.357,1027.31 632.5,1028C 633.88,1029.32 634.214,1030.66 633.5,1032C 639.966,1037.52 638.966,1041.86 630.5,1045C 631.167,1045.33 631.833,1045.67 632.5,1046C 631.328,1046.42 630.328,1047.09 629.5,1048C 630.833,1048.67 630.833,1049.33 629.5,1050C 630.167,1050.33 630.833,1050.67 631.5,1051C 630.167,1052.33 628.833,1053.67 627.5,1055C 628.167,1056.67 628.833,1058.33 629.5,1060C 626.628,1062.52 626.962,1064.35 630.5,1065.5C 626.5,1068.83 626.5,1072.17 630.5,1075.5C 630,1076.5 629.5,1077.5 629,1078.5C 628.683,1076.7 628.016,1076.37 627,1077.5C 627.497,1079.2 627.33,1080.87 626.5,1082.5C 627.183,1085.46 628.016,1085.79 629,1083.5C 629.684,1084.78 629.517,1085.95 628.5,1087C 629.167,1087.33 629.833,1087.67 630.5,1088C 629.657,1090.12 629.323,1092.45 629.5,1095C 630.167,1095.33 630.833,1095.67 631.5,1096C 630.167,1096.67 628.833,1097.33 627.5,1098C 629.354,1100.3 630.354,1102.63 630.5,1105C 628.72,1107.82 627.386,1110.49 626.5,1113C 627.5,1114 628.5,1115 629.5,1116C 627.545,1116.95 625.878,1118.29 624.5,1120C 624.833,1120.33 625.167,1120.67 625.5,1121C 624.707,1122.09 624.04,1123.25 623.5,1124.5C 626.711,1125.59 627.711,1127.59 626.5,1130.5C 630.168,1133.55 630.168,1136.38 626.5,1139C 628.715,1139.39 630.048,1140.39 630.5,1142C 629.167,1143.33 627.833,1144.67 626.5,1146C 627.13,1147.89 628.13,1149.56 629.5,1151C 629,1151.5 628.5,1152 628,1152.5C 626.984,1151.37 626.317,1151.7 626,1153.5C 624.234,1151.4 622.901,1149.07 622,1146.5C 619.968,1148.9 618.468,1148.4 617.5,1145C 617.917,1142.33 618.417,1139.5 619,1136.5C 617.172,1138.81 615.506,1138.47 614,1135.5C 615.334,1139.55 616.501,1143.55 617.5,1147.5C 617.306,1149.07 617.306,1150.57 617.5,1152C 616.833,1152.67 616.167,1153.33 615.5,1154C 617.361,1155.03 618.695,1156.53 619.5,1158.5C 618.306,1161.62 616.806,1161.95 615,1159.5C 614.956,1161.76 615.789,1163.76 617.5,1165.5C 616.998,1166.72 616.665,1167.88 616.5,1169C 617.167,1169.67 617.833,1170.33 618.5,1171C 617.531,1172.76 616.364,1173.26 615,1172.5C 613.602,1174.84 613.935,1177.18 616,1179.5C 617.458,1178.25 618.958,1178.25 620.5,1179.5C 621.88,1178.02 623.547,1177.02 625.5,1176.5C 625.926,1180.55 627.259,1184.22 629.5,1187.5C 630.816,1190.03 631.983,1190.03 633,1187.5C 633.309,1188.77 633.809,1189.93 634.5,1191C 634.167,1191.33 633.833,1191.67 633.5,1192C 635.099,1193.07 636.099,1194.57 636.5,1196.5C 634.205,1198.51 632.872,1200.68 632.5,1203C 633.074,1204.92 633.407,1206.75 633.5,1208.5C 632.538,1210.99 631.705,1210.99 631,1208.5C 630.751,1209.62 630.251,1210.62 629.5,1211.5C 627.742,1212.13 626.242,1213.13 625,1214.5C 624.667,1214.17 624.333,1213.83 624,1213.5C 623.683,1215.3 623.016,1215.63 622,1214.5C 620.225,1216.39 618.225,1218.06 616,1219.5C 614.893,1218.29 614.393,1218.62 614.5,1220.5C 612.5,1219.17 610.833,1217.5 609.5,1215.5C 609.938,1215.57 610.272,1215.4 610.5,1215C 607.167,1211.67 603.833,1208.33 600.5,1205C 601.5,1204.67 602.5,1204.33 603.5,1204C 600.623,1201.21 600.123,1197.71 602,1193.5C 602.973,1195.39 603.64,1197.39 604,1199.5C 604.667,1194.17 605.333,1194.17 606,1199.5C 606.346,1197.78 606.846,1196.12 607.5,1194.5C 604.683,1191.18 601.683,1188.02 598.5,1185C 600.394,1183.9 601.061,1182.57 600.5,1181C 599.448,1179.88 598.281,1179.38 597,1179.5C 596.626,1178.58 596.126,1177.75 595.5,1177C 596.357,1176.31 597.023,1175.48 597.5,1174.5C 596.025,1172.19 594.358,1170.02 592.5,1168C 595.022,1167.04 597.189,1165.54 599,1163.5C 600.766,1165.6 602.099,1167.93 603,1170.5C 603.667,1166.5 604.333,1166.5 605,1170.5C 605.309,1169.23 605.809,1168.07 606.5,1167C 603.5,1164 600.5,1161 597.5,1158C 598.451,1157.28 598.617,1156.45 598,1155.5C 595.715,1153.09 593.549,1150.59 591.5,1148C 592.06,1145.32 593.727,1142.99 596.5,1141C 594.2,1138.99 594.2,1136.83 596.5,1134.5C 595.167,1133.5 593.833,1132.5 592.5,1131.5C 593.782,1129.82 594.782,1127.99 595.5,1126C 593.047,1124.15 592.047,1121.65 592.5,1118.5C 593.822,1118.33 594.989,1118.66 596,1119.5C 596.311,1117.44 596.811,1115.44 597.5,1113.5C 596.645,1112.71 595.811,1113.04 595,1114.5C 591.714,1112.19 591.881,1110.02 595.5,1108C 593.262,1105.9 592.262,1103.56 592.5,1101C 594.038,1097.61 595.371,1094.11 596.5,1090.5C 596.158,1087.86 594.825,1085.36 592.5,1083C 593.704,1079.43 595.037,1075.93 596.5,1072.5C 594.337,1070.23 594.171,1067.89 596,1065.5C 597.077,1068.28 598.744,1070.62 601,1072.5C 601.309,1071.23 601.809,1070.07 602.5,1069C 601.5,1068 600.5,1067 599.5,1066C 602.15,1062.79 601.984,1062.29 599,1064.5C 596.833,1063 597,1061.83 599.5,1061C 598.167,1059 596.833,1057 595.5,1055C 596.85,1053.28 598.017,1051.45 599,1049.5C 603.54,1053.7 606.874,1058.7 609,1064.5C 610.539,1061.59 611.372,1058.75 611.5,1056C 608.833,1054.67 608.833,1053.33 611.5,1052C 608.723,1047.17 604.889,1042.67 600,1038.5C 598.354,1036.95 598.021,1035.28 599,1033.5C 598.667,1033.17 598.333,1032.83 598,1032.5C 596.899,1034.39 595.566,1035.06 594,1034.5C 591.612,1032.28 591.446,1029.62 593.5,1026.5C 594.425,1025.36 595.259,1025.36 596,1026.5C 597.951,1024.86 597.784,1023.36 595.5,1022C 596.993,1020.63 598.493,1020.47 600,1021.5C 600.309,1020.23 600.809,1019.07 601.5,1018C 599.854,1016.45 599.521,1014.78 600.5,1013C 600,1012.5 599.5,1012 599,1011.5C 598.333,1012.83 597.667,1014.17 597,1015.5C 595.887,1014.29 594.72,1014.29 593.5,1015.5C 592.501,1012.48 593.501,1010.15 596.5,1008.5C 595.318,1006.53 595.985,1005.2 598.5,1004.5C 596.857,1001.4 597.524,998.734 600.5,996.5C 601.864,1000.56 602.531,1000.4 602.5,996C 602.397,991.752 601.897,991.586 601,995.5C 600.779,992.057 599.779,991.724 598,994.5C 598.084,991.282 596.917,988.282 594.5,985.5C 594.709,984.914 595.043,984.414 595.5,984C 591.848,980.847 592.181,977.847 596.5,975C 595.167,974 595.167,973 596.5,972C 594.032,970.412 593.866,968.578 596,966.5C 596.451,968.929 597.285,969.096 598.5,967C 594.547,964.356 594.714,961.856 599,959.5C 600.867,961.808 601.867,964.475 602,967.5C 603.147,962.127 601.313,958.127 596.5,955.5C 600.833,950.5 605.5,945.833 610.5,941.5 Z"/></g>
<g><path style="opacity:0.988" fill="#cd243a" d="M 614.5,1221.5 C 615.833,1222.17 616.833,1223.17 617.5,1224.5C 446.392,1321.89 275.058,1419.06 103.5,1516C 85.0966,1523.98 67.0966,1523.31 49.5,1514C 47.2941,1511.96 45.2941,1509.8 43.5,1507.5C 44.5,1506.83 45.5,1506.17 46.5,1505.5C 50.6391,1509.08 55.3058,1511.91 60.5,1514C 79.7549,1518.83 98.0883,1515.83 115.5,1505C 281.536,1409.98 447.869,1315.48 614.5,1221.5 Z"/></g>
</svg>
